<?xml version="1.0" encoding="UTF-8" standalone="no"?>
<!DOCTYPE svg PUBLIC "-//W3C//DTD SVG 1.1//EN"
 "http://www.w3.org/Graphics/SVG/1.1/DTD/svg11.dtd">
<!-- Generated by graphviz version 14.1.5 (20260411.2331)
 -->
<!-- Title: review_pr_simple Pages: 1 -->
<svg width="757pt" height="892pt"
 viewBox="0.00 0.00 757.00 892.00" xmlns="http://www.w3.org/2000/svg" xmlns:xlink="http://www.w3.org/1999/xlink">
<g id="graph0" class="graph" transform="scale(1 1) rotate(0) translate(4 888.25)">
<title>review_pr_simple</title>
<polygon fill="white" stroke="none" points="-4,4 -4,-888.25 753.25,-888.25 753.25,4 -4,4"/>
<!-- init -->
<g id="node1" class="node">
<title>init</title>
<path fill="#e1f5fe" stroke="black" d="M476,-884.25C476,-884.25 370,-884.25 370,-884.25 364,-884.25 358,-878.25 358,-872.25 358,-872.25 358,-860.25 358,-860.25 358,-854.25 364,-848.25 370,-848.25 370,-848.25 476,-848.25 476,-848.25 482,-848.25 488,-854.25 488,-860.25 488,-860.25 488,-872.25 488,-872.25 488,-878.25 482,-884.25 476,-884.25"/>
<text xml:space="preserve" text-anchor="middle" x="423" y="-867.8" font-family="Helvetica,sans-Serif" font-size="11.00">init</text>
<text xml:space="preserve" text-anchor="middle" x="423" y="-855.8" font-family="Helvetica,sans-Serif" font-size="11.00">(parse PR id, set paths)</text>
</g>
<!-- fetch_context -->
<g id="node2" class="node">
<title>fetch_context</title>
<path fill="#e1f5fe" stroke="black" d="M489.12,-811.25C489.12,-811.25 356.88,-811.25 356.88,-811.25 350.88,-811.25 344.88,-805.25 344.88,-799.25 344.88,-799.25 344.88,-787.25 344.88,-787.25 344.88,-781.25 350.88,-775.25 356.88,-775.25 356.88,-775.25 489.12,-775.25 489.12,-775.25 495.12,-775.25 501.12,-781.25 501.12,-787.25 501.12,-787.25 501.12,-799.25 501.12,-799.25 501.12,-805.25 495.12,-811.25 489.12,-811.25"/>
<text xml:space="preserve" text-anchor="middle" x="423" y="-794.8" font-family="Helvetica,sans-Serif" font-size="11.00">fetch&#45;context</text>
<text xml:space="preserve" text-anchor="middle" x="423" y="-782.8" font-family="Helvetica,sans-Serif" font-size="11.00">(PR metadata, diff, CI status)</text>
</g>
<!-- init&#45;&gt;fetch_context -->
<g id="edge1" class="edge">
<title>init&#45;&gt;fetch_context</title>
<path fill="none" stroke="black" d="M423,-848.06C423,-840.47 423,-831.35 423,-822.78"/>
<polygon fill="black" stroke="black" points="426.5,-822.79 423,-812.79 419.5,-822.79 426.5,-822.79"/>
</g>
<!-- decide_prior -->
<g id="node8" class="node">
<title>decide_prior</title>
<polygon fill="#ffe0b2" stroke="black" points="423,-738.25 360.92,-720.25 423,-702.25 485.08,-720.25 423,-738.25"/>
<text xml:space="preserve" text-anchor="middle" x="423" y="-715.8" font-family="Helvetica,sans-Serif" font-size="11.00">decide&#45;prior</text>
</g>
<!-- fetch_context&#45;&gt;decide_prior -->
<g id="edge2" class="edge">
<title>fetch_context&#45;&gt;decide_prior</title>
<path fill="none" stroke="black" d="M423,-775.06C423,-767.47 423,-758.35 423,-749.78"/>
<polygon fill="black" stroke="black" points="426.5,-749.79 423,-739.79 419.5,-749.79 426.5,-749.79"/>
</g>
<!-- show_existing -->
<g id="node3" class="node">
<title>show_existing</title>
<path fill="#e1f5fe" stroke="black" d="M663.88,-492.75C663.88,-492.75 554.12,-492.75 554.12,-492.75 548.12,-492.75 542.12,-486.75 542.12,-480.75 542.12,-480.75 542.12,-468.75 542.12,-468.75 542.12,-462.75 548.12,-456.75 554.12,-456.75 554.12,-456.75 663.88,-456.75 663.88,-456.75 669.88,-456.75 675.88,-462.75 675.88,-468.75 675.88,-468.75 675.88,-480.75 675.88,-480.75 675.88,-486.75 669.88,-492.75 663.88,-492.75"/>
<text xml:space="preserve" text-anchor="middle" x="609" y="-476.3" font-family="Helvetica,sans-Serif" font-size="11.00">show&#45;existing</text>
<text xml:space="preserve" text-anchor="middle" x="609" y="-464.3" font-family="Helvetica,sans-Serif" font-size="11.00">(print prior REVIEW.md)</text>
</g>
<!-- terminal -->
<g id="node12" class="node">
<title>terminal</title>
<ellipse fill="#c8e6c9" stroke="black" cx="584" cy="-36.62" rx="32.62" ry="32.62"/>
<ellipse fill="none" stroke="black" cx="584" cy="-36.62" rx="36.62" ry="36.62"/>
<text xml:space="preserve" text-anchor="middle" x="584" y="-32.17" font-family="Helvetica,sans-Serif" font-size="11.00">terminal</text>
</g>
<!-- show_existing&#45;&gt;terminal -->
<g id="edge3" class="edge">
<title>show_existing&#45;&gt;terminal</title>
<path fill="none" stroke="black" d="M623.65,-456.25C636.45,-439.15 653,-411.81 653,-384.75 653,-384.75 653,-384.75 653,-127.25 653,-103.67 637.82,-82.49 621.7,-66.65"/>
<polygon fill="black" stroke="black" points="624.1,-64.1 614.37,-59.89 619.35,-69.25 624.1,-64.1"/>
</g>
<!-- review -->
<g id="node4" class="node">
<title>review</title>
<path fill="#e1f5fe" stroke="black" d="M471.62,-546.75C471.62,-546.75 342.38,-546.75 342.38,-546.75 336.38,-546.75 330.38,-540.75 330.38,-534.75 330.38,-534.75 330.38,-522.75 330.38,-522.75 330.38,-516.75 336.38,-510.75 342.38,-510.75 342.38,-510.75 471.62,-510.75 471.62,-510.75 477.62,-510.75 483.62,-516.75 483.62,-522.75 483.62,-522.75 483.62,-534.75 483.62,-534.75 483.62,-540.75 477.62,-546.75 471.62,-546.75"/>
<text xml:space="preserve" text-anchor="middle" x="407" y="-530.3" font-family="Helvetica,sans-Serif" font-size="11.00">review</text>
<text xml:space="preserve" text-anchor="middle" x="407" y="-518.3" font-family="Helvetica,sans-Serif" font-size="11.00">(write REVIEW.md from diff)</text>
</g>
<!-- display -->
<g id="node5" class="node">
<title>display</title>
<path fill="#e1f5fe" stroke="black" d="M438.88,-438.75C438.88,-438.75 317.12,-438.75 317.12,-438.75 311.12,-438.75 305.12,-432.75 305.12,-426.75 305.12,-426.75 305.12,-414.75 305.12,-414.75 305.12,-408.75 311.12,-402.75 317.12,-402.75 317.12,-402.75 438.88,-402.75 438.88,-402.75 444.88,-402.75 450.88,-408.75 450.88,-414.75 450.88,-414.75 450.88,-426.75 450.88,-426.75 450.88,-432.75 444.88,-438.75 438.88,-438.75"/>
<text xml:space="preserve" text-anchor="middle" x="378" y="-422.3" font-family="Helvetica,sans-Serif" font-size="11.00">display</text>
<text xml:space="preserve" text-anchor="middle" x="378" y="-410.3" font-family="Helvetica,sans-Serif" font-size="11.00">(output REVIEW.md inline)</text>
</g>
<!-- review&#45;&gt;display -->
<g id="edge4" class="edge">
<title>review&#45;&gt;display</title>
<path fill="none" stroke="black" d="M402.34,-510.71C397.86,-494.35 391.02,-469.33 385.73,-449.99"/>
<polygon fill="black" stroke="black" points="389.16,-449.27 383.14,-440.55 382.41,-451.11 389.16,-449.27"/>
</g>
<!-- ask_next_action -->
<g id="node10" class="node">
<title>ask_next_action</title>
<polygon fill="#ffccbc" stroke="black" points="361,-365.75 228.75,-333.75 361,-301.75 493.25,-333.75 361,-365.75"/>
<text xml:space="preserve" text-anchor="middle" x="361" y="-335.3" font-family="Helvetica,sans-Serif" font-size="11.00">ask&#45;next&#45;action</text>
<text xml:space="preserve" text-anchor="middle" x="361" y="-323.3" font-family="Helvetica,sans-Serif" font-size="11.00">(post / discuss / nothing)</text>
</g>
<!-- display&#45;&gt;ask_next_action -->
<g id="edge5" class="edge">
<title>display&#45;&gt;ask_next_action</title>
<path fill="none" stroke="black" d="M374.56,-402.54C373,-394.73 371.08,-385.13 369.18,-375.64"/>
<polygon fill="black" stroke="black" points="372.67,-375.26 367.28,-366.14 365.81,-376.63 372.67,-375.26"/>
</g>
<!-- discuss -->
<g id="node6" class="node">
<title>discuss</title>
<path fill="#e1f5fe" stroke="black" d="M136,-242C136,-242 12,-242 12,-242 6,-242 0,-236 0,-230 0,-230 0,-218 0,-218 0,-212 6,-206 12,-206 12,-206 136,-206 136,-206 142,-206 148,-212 148,-218 148,-218 148,-230 148,-230 148,-236 142,-242 136,-242"/>
<text xml:space="preserve" text-anchor="middle" x="74" y="-225.55" font-family="Helvetica,sans-Serif" font-size="11.00">discuss</text>
<text xml:space="preserve" text-anchor="middle" x="74" y="-213.55" font-family="Helvetica,sans-Serif" font-size="11.00">(free&#45;form Q&amp;A on findings)</text>
</g>
<!-- discuss&#45;&gt;ask_next_action -->
<g id="edge15" class="edge">
<title>discuss&#45;&gt;ask_next_action</title>
<path fill="none" stroke="black" d="M119.04,-242.43C131.29,-247.01 144.61,-251.83 157,-256 183.39,-264.87 190.75,-264.73 217,-274 246.09,-284.27 277.9,-297.07 304.2,-308.1"/>
<polygon fill="black" stroke="black" points="302.77,-311.3 313.35,-311.96 305.49,-304.85 302.77,-311.3"/>
<text xml:space="preserve" text-anchor="middle" x="275.77" y="-275.2" font-family="Helvetica,sans-Serif" font-size="9.00">discussion_done</text>
</g>
<!-- post -->
<g id="node7" class="node">
<title>post</title>
<path fill="#e1f5fe" stroke="black" d="M446.5,-146.25C446.5,-146.25 283.5,-146.25 283.5,-146.25 277.5,-146.25 271.5,-140.25 271.5,-134.25 271.5,-134.25 271.5,-122.25 271.5,-122.25 271.5,-116.25 277.5,-110.25 283.5,-110.25 283.5,-110.25 446.5,-110.25 446.5,-110.25 452.5,-110.25 458.5,-116.25 458.5,-122.25 458.5,-122.25 458.5,-134.25 458.5,-134.25 458.5,-140.25 452.5,-146.25 446.5,-146.25"/>
<text xml:space="preserve" text-anchor="middle" x="365" y="-129.8" font-family="Helvetica,sans-Serif" font-size="11.00">post</text>
<text xml:space="preserve" text-anchor="middle" x="365" y="-117.8" font-family="Helvetica,sans-Serif" font-size="11.00">(gh api: review +/&#45; inline comments)</text>
</g>
<!-- post&#45;&gt;terminal -->
<g id="edge6" class="edge">
<title>post&#45;&gt;terminal</title>
<path fill="none" stroke="black" d="M407.75,-109.75C445.86,-94.15 501.43,-71.41 539.94,-55.65"/>
<polygon fill="black" stroke="black" points="540.99,-59 548.92,-51.98 538.34,-52.53 540.99,-59"/>
</g>
<!-- decide_prior&#45;&gt;review -->
<g id="edge8" class="edge">
<title>decide_prior&#45;&gt;review</title>
<path fill="none" stroke="black" d="M420.76,-702.49C419.13,-689.87 416.96,-672.12 415.5,-656.5 412.35,-622.75 409.92,-583.85 408.48,-558.14"/>
<polygon fill="black" stroke="black" points="411.99,-558.29 407.95,-548.5 405.01,-558.68 411.99,-558.29"/>
<text xml:space="preserve" text-anchor="middle" x="432.75" y="-620.82" font-family="Helvetica,sans-Serif" font-size="9.00">no_prior</text>
</g>
<!-- confirm_prior_review -->
<g id="node9" class="node">
<title>confirm_prior_review</title>
<polygon fill="#ffccbc" stroke="black" points="602,-656.5 459.25,-624.5 602,-592.5 744.75,-624.5 602,-656.5"/>
<text xml:space="preserve" text-anchor="middle" x="602" y="-626.05" font-family="Helvetica,sans-Serif" font-size="11.00">confirm&#45;prior&#45;review</text>
<text xml:space="preserve" text-anchor="middle" x="602" y="-614.05" font-family="Helvetica,sans-Serif" font-size="11.00">(re&#45;review / show / cancel)</text>
</g>
<!-- decide_prior&#45;&gt;confirm_prior_review -->
<g id="edge7" class="edge">
<title>decide_prior&#45;&gt;confirm_prior_review</title>
<path fill="none" stroke="black" d="M444.24,-708.12C470.11,-694.57 514.73,-671.2 549.93,-652.77"/>
<polygon fill="black" stroke="black" points="551.48,-655.91 558.71,-648.17 548.23,-649.71 551.48,-655.91"/>
<text xml:space="preserve" text-anchor="middle" x="530.76" y="-675.7" font-family="Helvetica,sans-Serif" font-size="9.00">prior_exists</text>
</g>
<!-- confirm_prior_review&#45;&gt;show_existing -->
<g id="edge10" class="edge">
<title>confirm_prior_review&#45;&gt;show_existing</title>
<path fill="none" stroke="black" d="M602.42,-592.08C602.6,-583.24 602.87,-573.61 603.25,-564.75 604.11,-544.61 605.59,-521.93 606.82,-504.51"/>
<polygon fill="black" stroke="black" points="610.31,-504.87 607.54,-494.64 603.33,-504.36 610.31,-504.87"/>
<text xml:space="preserve" text-anchor="middle" x="644.12" y="-565.95" font-family="Helvetica,sans-Serif" font-size="9.00">user_show_existing</text>
</g>
<!-- confirm_prior_review&#45;&gt;review -->
<g id="edge9" class="edge">
<title>confirm_prior_review&#45;&gt;review</title>
<path fill="none" stroke="black" d="M557.75,-602.22C526.66,-587.27 485.14,-567.31 453.55,-552.12"/>
<polygon fill="black" stroke="black" points="455.14,-549 444.61,-547.83 452.1,-555.31 455.14,-549"/>
<text xml:space="preserve" text-anchor="middle" x="530.53" y="-565.95" font-family="Helvetica,sans-Serif" font-size="9.00">user_re_review</text>
</g>
<!-- confirm_prior_review&#45;&gt;terminal -->
<g id="edge11" class="edge">
<title>confirm_prior_review&#45;&gt;terminal</title>
<path fill="none" stroke="black" d="M650.07,-603.04C662.9,-595.64 675.75,-586.17 685,-574.5 697.95,-558.17 699,-550.58 699,-529.75 699,-529.75 699,-529.75 699,-127.25 699,-90.4 661.83,-66.48 629.75,-52.7"/>
<polygon fill="black" stroke="black" points="631.12,-49.48 620.53,-48.98 628.49,-55.97 631.12,-49.48"/>
<text xml:space="preserve" text-anchor="middle" x="724.12" y="-330.07" font-family="Helvetica,sans-Serif" font-size="9.00">user_cancel</text>
</g>
<!-- ask_next_action&#45;&gt;discuss -->
<g id="edge13" class="edge">
<title>ask_next_action&#45;&gt;discuss</title>
<path fill="none" stroke="black" d="M283.79,-320C246.33,-312.24 201.27,-300.52 163,-283.75 142.45,-274.74 121.4,-261.09 104.94,-249.21"/>
<polygon fill="black" stroke="black" points="107.16,-246.5 97.04,-243.37 103,-252.13 107.16,-246.5"/>
<text xml:space="preserve" text-anchor="middle" x="190" y="-275.2" font-family="Helvetica,sans-Serif" font-size="9.00">user_discuss</text>
</g>
<!-- ask_post_style -->
<g id="node11" class="node">
<title>ask_post_style</title>
<polygon fill="#ffccbc" stroke="black" points="361,-256 166.5,-224 361,-192 555.5,-224 361,-256"/>
<text xml:space="preserve" text-anchor="middle" x="361" y="-225.55" font-family="Helvetica,sans-Serif" font-size="11.00">ask&#45;post&#45;style</text>
<text xml:space="preserve" text-anchor="middle" x="361" y="-213.55" font-family="Helvetica,sans-Serif" font-size="11.00">(comment / request / approve / inline)</text>
</g>
<!-- ask_next_action&#45;&gt;ask_post_style -->
<g id="edge12" class="edge">
<title>ask_next_action&#45;&gt;ask_post_style</title>
<path fill="none" stroke="black" d="M361,-301.29C361,-290.78 361,-278.88 361,-267.66"/>
<polygon fill="black" stroke="black" points="364.5,-267.82 361,-257.82 357.5,-267.82 364.5,-267.82"/>
<text xml:space="preserve" text-anchor="middle" x="381.25" y="-275.2" font-family="Helvetica,sans-Serif" font-size="9.00">user_post</text>
</g>
<!-- ask_next_action&#45;&gt;terminal -->
<g id="edge14" class="edge">
<title>ask_next_action&#45;&gt;terminal</title>
<path fill="none" stroke="black" d="M446.72,-322.03C489.07,-312.09 536.99,-292.93 565,-256 584.7,-230.02 586.54,-141.02 585.6,-84.98"/>
<polygon fill="black" stroke="black" points="589.11,-84.99 585.4,-75.06 582.11,-85.14 589.11,-84.99"/>
<text xml:space="preserve" text-anchor="middle" x="611.27" y="-165.45" font-family="Helvetica,sans-Serif" font-size="9.00">user_nothing</text>
</g>
<!-- ask_post_style&#45;&gt;post -->
<g id="edge16" class="edge">
<title>ask_post_style&#45;&gt;post</title>
<path fill="none" stroke="black" d="M362.33,-191.78C362.8,-180.86 363.32,-168.67 363.77,-157.97"/>
<polygon fill="black" stroke="black" points="367.26,-158.32 364.19,-148.18 360.27,-158.02 367.26,-158.32"/>
<text xml:space="preserve" text-anchor="middle" x="390.48" y="-165.45" font-family="Helvetica,sans-Serif" font-size="9.00">style_chosen</text>
</g>
<!-- ask_post_style&#45;&gt;terminal -->
<g id="edge17" class="edge">
<title>ask_post_style&#45;&gt;terminal</title>
<path fill="none" stroke="black" d="M398.53,-197.86C419.47,-183.4 445.74,-164.52 468,-146.25 497.06,-122.39 528.05,-93.15 550.68,-71.02"/>
<polygon fill="black" stroke="black" points="552.86,-73.78 557.54,-64.28 547.96,-68.79 552.86,-73.78"/>
<text xml:space="preserve" text-anchor="middle" x="533.38" y="-124.57" font-family="Helvetica,sans-Serif" font-size="9.00">user_cancel</text>
</g>
</g>
</svg>
