<?xml version="1.0" encoding="UTF-8" standalone="no"?>
<!DOCTYPE svg PUBLIC "-//W3C//DTD SVG 1.1//EN"
 "http://www.w3.org/Graphics/SVG/1.1/DTD/svg11.dtd">
<!-- Generated by graphviz version 14.1.5 (20260411.2331)
 -->
<!-- Title: sprint_work Pages: 1 -->
<svg width="713pt" height="1282pt"
 viewBox="0.00 0.00 713.00 1282.00" xmlns="http://www.w3.org/2000/svg" xmlns:xlink="http://www.w3.org/1999/xlink">
<g id="graph0" class="graph" transform="scale(1 1) rotate(0) translate(4 1278.5)">
<title>sprint_work</title>
<polygon fill="white" stroke="none" points="-4,4 -4,-1278.5 708.75,-1278.5 708.75,4 -4,4"/>
<!-- init -->
<g id="node1" class="node">
<title>init</title>
<path fill="#e1f5fe" stroke="black" d="M189,-1274.5C189,-1274.5 102.5,-1274.5 102.5,-1274.5 96.5,-1274.5 90.5,-1268.5 90.5,-1262.5 90.5,-1262.5 90.5,-1242.5 90.5,-1242.5 90.5,-1236.5 96.5,-1230.5 102.5,-1230.5 102.5,-1230.5 189,-1230.5 189,-1230.5 195,-1230.5 201,-1236.5 201,-1242.5 201,-1242.5 201,-1262.5 201,-1262.5 201,-1268.5 195,-1274.5 189,-1274.5"/>
<text xml:space="preserve" text-anchor="middle" x="145.75" y="-1260.05" font-family="Helvetica,sans-Serif" font-size="11.00">init</text>
<text xml:space="preserve" text-anchor="middle" x="145.75" y="-1248.05" font-family="Helvetica,sans-Serif" font-size="11.00">(parse args + flags,</text>
<text xml:space="preserve" text-anchor="middle" x="145.75" y="-1236.05" font-family="Helvetica,sans-Serif" font-size="11.00">handle &#45;&#45;help inline)</text>
</g>
<!-- resolve_target -->
<g id="node2" class="node">
<title>resolve_target</title>
<path fill="#e1f5fe" stroke="black" d="M215.25,-1193.5C215.25,-1193.5 76.25,-1193.5 76.25,-1193.5 70.25,-1193.5 64.25,-1187.5 64.25,-1181.5 64.25,-1181.5 64.25,-1161.5 64.25,-1161.5 64.25,-1155.5 70.25,-1149.5 76.25,-1149.5 76.25,-1149.5 215.25,-1149.5 215.25,-1149.5 221.25,-1149.5 227.25,-1155.5 227.25,-1161.5 227.25,-1161.5 227.25,-1181.5 227.25,-1181.5 227.25,-1187.5 221.25,-1193.5 215.25,-1193.5"/>
<text xml:space="preserve" text-anchor="middle" x="145.75" y="-1179.05" font-family="Helvetica,sans-Serif" font-size="11.00">resolve&#45;target</text>
<text xml:space="preserve" text-anchor="middle" x="145.75" y="-1167.05" font-family="Helvetica,sans-Serif" font-size="11.00">(detect sprintmd / linear&#45;issue /</text>
<text xml:space="preserve" text-anchor="middle" x="145.75" y="-1155.05" font-family="Helvetica,sans-Serif" font-size="11.00">linear&#45;walk)</text>
</g>
<!-- init&#45;&gt;resolve_target -->
<g id="edge1" class="edge">
<title>init&#45;&gt;resolve_target</title>
<path fill="none" stroke="black" d="M145.75,-1230.32C145.75,-1222.53 145.75,-1213.52 145.75,-1204.96"/>
<polygon fill="black" stroke="black" points="149.25,-1205.24 145.75,-1195.24 142.25,-1205.24 149.25,-1205.24"/>
</g>
<!-- load_context -->
<g id="node3" class="node">
<title>load_context</title>
<path fill="#e1f5fe" stroke="black" d="M203.25,-1112.5C203.25,-1112.5 88.25,-1112.5 88.25,-1112.5 82.25,-1112.5 76.25,-1106.5 76.25,-1100.5 76.25,-1100.5 76.25,-1080.5 76.25,-1080.5 76.25,-1074.5 82.25,-1068.5 88.25,-1068.5 88.25,-1068.5 203.25,-1068.5 203.25,-1068.5 209.25,-1068.5 215.25,-1074.5 215.25,-1080.5 215.25,-1080.5 215.25,-1100.5 215.25,-1100.5 215.25,-1106.5 209.25,-1112.5 203.25,-1112.5"/>
<text xml:space="preserve" text-anchor="middle" x="145.75" y="-1098.05" font-family="Helvetica,sans-Serif" font-size="11.00">load&#45;context</text>
<text xml:space="preserve" text-anchor="middle" x="145.75" y="-1086.05" font-family="Helvetica,sans-Serif" font-size="11.00">(Linear issue/milestone +</text>
<text xml:space="preserve" text-anchor="middle" x="145.75" y="-1074.05" font-family="Helvetica,sans-Serif" font-size="11.00">SPRINT.md/LINEAR.md)</text>
</g>
<!-- resolve_target&#45;&gt;load_context -->
<g id="edge2" class="edge">
<title>resolve_target&#45;&gt;load_context</title>
<path fill="none" stroke="black" d="M145.75,-1149.32C145.75,-1141.53 145.75,-1132.52 145.75,-1123.96"/>
<polygon fill="black" stroke="black" points="149.25,-1124.24 145.75,-1114.24 142.25,-1124.24 149.25,-1124.24"/>
</g>
<!-- dispatch_mode -->
<g id="node15" class="node">
<title>dispatch_mode</title>
<polygon fill="#ffe0b2" stroke="black" points="145.75,-1031.5 17.25,-999.5 145.75,-967.5 274.25,-999.5 145.75,-1031.5"/>
<text xml:space="preserve" text-anchor="middle" x="145.75" y="-1001.05" font-family="Helvetica,sans-Serif" font-size="11.00">dispatch&#45;mode</text>
<text xml:space="preserve" text-anchor="middle" x="145.75" y="-989.05" font-family="Helvetica,sans-Serif" font-size="11.00">(review / retro / normal)</text>
</g>
<!-- load_context&#45;&gt;dispatch_mode -->
<g id="edge3" class="edge">
<title>load_context&#45;&gt;dispatch_mode</title>
<path fill="none" stroke="black" d="M145.75,-1068.4C145.75,-1060.83 145.75,-1051.98 145.75,-1043.23"/>
<polygon fill="black" stroke="black" points="149.25,-1043.41 145.75,-1033.41 142.25,-1043.41 149.25,-1043.41"/>
</g>
<!-- render_plan_and_exit -->
<g id="node4" class="node">
<title>render_plan_and_exit</title>
<path fill="#e1f5fe" stroke="black" d="M101.5,-867.75C101.5,-867.75 12,-867.75 12,-867.75 6,-867.75 0,-861.75 0,-855.75 0,-855.75 0,-835.75 0,-835.75 0,-829.75 6,-823.75 12,-823.75 12,-823.75 101.5,-823.75 101.5,-823.75 107.5,-823.75 113.5,-829.75 113.5,-835.75 113.5,-835.75 113.5,-855.75 113.5,-855.75 113.5,-861.75 107.5,-867.75 101.5,-867.75"/>
<text xml:space="preserve" text-anchor="middle" x="56.75" y="-853.3" font-family="Helvetica,sans-Serif" font-size="11.00">render&#45;plan&#45;and&#45;exit</text>
<text xml:space="preserve" text-anchor="middle" x="56.75" y="-841.3" font-family="Helvetica,sans-Serif" font-size="11.00">(&#45;&#45;review: print plan,</text>
<text xml:space="preserve" text-anchor="middle" x="56.75" y="-829.3" font-family="Helvetica,sans-Serif" font-size="11.00">stop)</text>
</g>
<!-- terminal -->
<g id="node18" class="node">
<title>terminal</title>
<ellipse fill="#c8e6c9" stroke="black" cx="422.75" cy="-36.62" rx="32.62" ry="32.62"/>
<ellipse fill="none" stroke="black" cx="422.75" cy="-36.62" rx="36.62" ry="36.62"/>
<text xml:space="preserve" text-anchor="middle" x="422.75" y="-32.17" font-family="Helvetica,sans-Serif" font-size="11.00">terminal</text>
</g>
<!-- render_plan_and_exit&#45;&gt;terminal -->
<g id="edge4" class="edge">
<title>render_plan_and_exit&#45;&gt;terminal</title>
<path fill="none" stroke="black" d="M51.56,-823.68C45.93,-798.98 37.75,-756.71 37.75,-719.87 37.75,-719.87 37.75,-719.87 37.75,-131.25 37.75,-62.69 271.14,-44.13 374.49,-39.28"/>
<polygon fill="black" stroke="black" points="374.49,-42.78 384.32,-38.84 374.18,-35.79 374.49,-42.78"/>
</g>
<!-- verify_merged -->
<g id="node5" class="node">
<title>verify_merged</title>
<path fill="#e1f5fe" stroke="black" d="M212.62,-244C212.62,-244 78.88,-244 78.88,-244 72.88,-244 66.88,-238 66.88,-232 66.88,-232 66.88,-212 66.88,-212 66.88,-206 72.88,-200 78.88,-200 78.88,-200 212.62,-200 212.62,-200 218.62,-200 224.62,-206 224.62,-212 224.62,-212 224.62,-232 224.62,-232 224.62,-238 218.62,-244 212.62,-244"/>
<text xml:space="preserve" text-anchor="middle" x="145.75" y="-229.55" font-family="Helvetica,sans-Serif" font-size="11.00">verify&#45;merged</text>
<text xml:space="preserve" text-anchor="middle" x="145.75" y="-217.55" font-family="Helvetica,sans-Serif" font-size="11.00">(&#45;&#45;retro: confirm PRs merged,</text>
<text xml:space="preserve" text-anchor="middle" x="145.75" y="-205.55" font-family="Helvetica,sans-Serif" font-size="11.00">user can override)</text>
</g>
<!-- write_retro -->
<g id="node6" class="node">
<title>write_retro</title>
<path fill="#e1f5fe" stroke="black" d="M181.25,-154.25C181.25,-154.25 78.25,-154.25 78.25,-154.25 72.25,-154.25 66.25,-148.25 66.25,-142.25 66.25,-142.25 66.25,-122.25 66.25,-122.25 66.25,-116.25 72.25,-110.25 78.25,-110.25 78.25,-110.25 181.25,-110.25 181.25,-110.25 187.25,-110.25 193.25,-116.25 193.25,-122.25 193.25,-122.25 193.25,-142.25 193.25,-142.25 193.25,-148.25 187.25,-154.25 181.25,-154.25"/>
<text xml:space="preserve" text-anchor="middle" x="129.75" y="-139.8" font-family="Helvetica,sans-Serif" font-size="11.00">write&#45;retro</text>
<text xml:space="preserve" text-anchor="middle" x="129.75" y="-127.8" font-family="Helvetica,sans-Serif" font-size="11.00">(RETRO.md, ledger fit,</text>
<text xml:space="preserve" text-anchor="middle" x="129.75" y="-115.8" font-family="Helvetica,sans-Serif" font-size="11.00">mark complete)</text>
</g>
<!-- verify_merged&#45;&gt;write_retro -->
<g id="edge14" class="edge">
<title>verify_merged&#45;&gt;write_retro</title>
<path fill="none" stroke="black" d="M141.88,-199.75C140.02,-189.59 137.76,-177.19 135.7,-165.87"/>
<polygon fill="black" stroke="black" points="139.15,-165.29 133.91,-156.08 132.27,-166.55 139.15,-165.29"/>
<text xml:space="preserve" text-anchor="middle" x="155.1" y="-173.45" font-family="Helvetica,sans-Serif" font-size="9.00">proceed</text>
</g>
<!-- verify_merged&#45;&gt;terminal -->
<g id="edge15" class="edge">
<title>verify_merged&#45;&gt;terminal</title>
<path fill="none" stroke="black" d="M164.04,-199.7C175.25,-186.62 189.87,-169.5 202.75,-154.25 219.19,-134.78 218.85,-125.18 239.5,-110.25 281.14,-80.13 336.99,-60.35 376.05,-49.15"/>
<polygon fill="black" stroke="black" points="376.93,-52.54 385.63,-46.49 375.06,-45.79 376.93,-52.54"/>
<text xml:space="preserve" text-anchor="middle" x="264.62" y="-128.57" font-family="Helvetica,sans-Serif" font-size="9.00">user_cancel</text>
</g>
<!-- write_retro&#45;&gt;terminal -->
<g id="edge5" class="edge">
<title>write_retro&#45;&gt;terminal</title>
<path fill="none" stroke="black" d="M171.54,-109.95C185.39,-103.4 201.03,-96.53 215.75,-91.25 269.36,-72.01 333.07,-56.57 375.51,-47.29"/>
<polygon fill="black" stroke="black" points="376.11,-50.74 385.14,-45.21 374.63,-43.9 376.11,-50.74"/>
</g>
<!-- detect_repo -->
<g id="node7" class="node">
<title>detect_repo</title>
<path fill="#e1f5fe" stroke="black" d="M433,-921.75C433,-921.75 316.5,-921.75 316.5,-921.75 310.5,-921.75 304.5,-915.75 304.5,-909.75 304.5,-909.75 304.5,-897.75 304.5,-897.75 304.5,-891.75 310.5,-885.75 316.5,-885.75 316.5,-885.75 433,-885.75 433,-885.75 439,-885.75 445,-891.75 445,-897.75 445,-897.75 445,-909.75 445,-909.75 445,-915.75 439,-921.75 433,-921.75"/>
<text xml:space="preserve" text-anchor="middle" x="374.75" y="-905.3" font-family="Helvetica,sans-Serif" font-size="11.00">detect&#45;repo</text>
<text xml:space="preserve" text-anchor="middle" x="374.75" y="-893.3" font-family="Helvetica,sans-Serif" font-size="11.00">(single&#45;repo or multi&#45;repo)</text>
</g>
<!-- verify_worktree -->
<g id="node16" class="node">
<title>verify_worktree</title>
<polygon fill="#ffe0b2" stroke="black" points="469.75,-805.75 312,-773.75 469.75,-741.75 627.5,-773.75 469.75,-805.75"/>
<text xml:space="preserve" text-anchor="middle" x="469.75" y="-775.3" font-family="Helvetica,sans-Serif" font-size="11.00">verify&#45;worktree</text>
<text xml:space="preserve" text-anchor="middle" x="469.75" y="-763.3" font-family="Helvetica,sans-Serif" font-size="11.00">(pushable + on right branch?)</text>
</g>
<!-- detect_repo&#45;&gt;verify_worktree -->
<g id="edge6" class="edge">
<title>detect_repo&#45;&gt;verify_worktree</title>
<path fill="none" stroke="black" d="M387.56,-885.48C401.66,-866.48 424.73,-835.4 442.85,-810.99"/>
<polygon fill="black" stroke="black" points="445.47,-813.34 448.62,-803.22 439.85,-809.17 445.47,-813.34"/>
</g>
<!-- detect_inflight -->
<g id="node8" class="node">
<title>detect_inflight</title>
<path fill="#e1f5fe" stroke="black" d="M529.12,-696C529.12,-696 410.38,-696 410.38,-696 404.38,-696 398.38,-690 398.38,-684 398.38,-684 398.38,-664 398.38,-664 398.38,-658 404.38,-652 410.38,-652 410.38,-652 529.12,-652 529.12,-652 535.12,-652 541.12,-658 541.12,-664 541.12,-664 541.12,-684 541.12,-684 541.12,-690 535.12,-696 529.12,-696"/>
<text xml:space="preserve" text-anchor="middle" x="469.75" y="-681.55" font-family="Helvetica,sans-Serif" font-size="11.00">detect&#45;inflight</text>
<text xml:space="preserve" text-anchor="middle" x="469.75" y="-669.55" font-family="Helvetica,sans-Serif" font-size="11.00">(existing PR + sprint state,</text>
<text xml:space="preserve" text-anchor="middle" x="469.75" y="-657.55" font-family="Helvetica,sans-Serif" font-size="11.00">ask user)</text>
</g>
<!-- show_plan -->
<g id="node9" class="node">
<title>show_plan</title>
<path fill="#e1f5fe" stroke="black" d="M496.88,-606.25C496.88,-606.25 388.62,-606.25 388.62,-606.25 382.62,-606.25 376.62,-600.25 376.62,-594.25 376.62,-594.25 376.62,-582.25 376.62,-582.25 376.62,-576.25 382.62,-570.25 388.62,-570.25 388.62,-570.25 496.88,-570.25 496.88,-570.25 502.88,-570.25 508.88,-576.25 508.88,-582.25 508.88,-582.25 508.88,-594.25 508.88,-594.25 508.88,-600.25 502.88,-606.25 496.88,-606.25"/>
<text xml:space="preserve" text-anchor="middle" x="442.75" y="-589.8" font-family="Helvetica,sans-Serif" font-size="11.00">show&#45;plan</text>
<text xml:space="preserve" text-anchor="middle" x="442.75" y="-577.8" font-family="Helvetica,sans-Serif" font-size="11.00">(render proposals inline)</text>
</g>
<!-- detect_inflight&#45;&gt;show_plan -->
<g id="edge18" class="edge">
<title>detect_inflight&#45;&gt;show_plan</title>
<path fill="none" stroke="black" d="M462.94,-651.86C459.56,-641.39 455.44,-628.61 451.81,-617.34"/>
<polygon fill="black" stroke="black" points="455.24,-616.58 448.84,-608.14 448.58,-618.73 455.24,-616.58"/>
<text xml:space="preserve" text-anchor="middle" x="486.31" y="-625.45" font-family="Helvetica,sans-Serif" font-size="9.00">user_continue</text>
</g>
<!-- detect_inflight&#45;&gt;terminal -->
<g id="edge19" class="edge">
<title>detect_inflight&#45;&gt;terminal</title>
<path fill="none" stroke="black" d="M529.9,-651.59C555.58,-638.25 579.75,-618.05 579.75,-589.25 579.75,-589.25 579.75,-589.25 579.75,-131.25 579.75,-79.65 516.42,-55.82 470.2,-45.31"/>
<polygon fill="black" stroke="black" points="471.15,-41.93 460.64,-43.29 469.7,-48.78 471.15,-41.93"/>
<text xml:space="preserve" text-anchor="middle" x="598.5" y="-352.95" font-family="Helvetica,sans-Serif" font-size="9.00">user_exit</text>
</g>
<!-- ask_approval -->
<g id="node17" class="node">
<title>ask_approval</title>
<polygon fill="#ffccbc" stroke="black" points="404.75,-533.25 258.25,-501.25 404.75,-469.25 551.25,-501.25 404.75,-533.25"/>
<text xml:space="preserve" text-anchor="middle" x="404.75" y="-502.8" font-family="Helvetica,sans-Serif" font-size="11.00">ask&#45;approval</text>
<text xml:space="preserve" text-anchor="middle" x="404.75" y="-490.8" font-family="Helvetica,sans-Serif" font-size="11.00">(approve / discuss / cancel)</text>
</g>
<!-- show_plan&#45;&gt;ask_approval -->
<g id="edge7" class="edge">
<title>show_plan&#45;&gt;ask_approval</title>
<path fill="none" stroke="black" d="M435.06,-570.04C431.33,-561.69 426.68,-551.29 422.15,-541.16"/>
<polygon fill="black" stroke="black" points="425.41,-539.88 418.13,-532.18 419.02,-542.74 425.41,-539.88"/>
</g>
<!-- discuss_plan -->
<g id="node10" class="node">
<title>discuss_plan</title>
<path fill="#e1f5fe" stroke="black" d="M295.5,-419.5C295.5,-419.5 188,-419.5 188,-419.5 182,-419.5 176,-413.5 176,-407.5 176,-407.5 176,-395.5 176,-395.5 176,-389.5 182,-383.5 188,-383.5 188,-383.5 295.5,-383.5 295.5,-383.5 301.5,-383.5 307.5,-389.5 307.5,-395.5 307.5,-395.5 307.5,-407.5 307.5,-407.5 307.5,-413.5 301.5,-419.5 295.5,-419.5"/>
<text xml:space="preserve" text-anchor="middle" x="241.75" y="-403.05" font-family="Helvetica,sans-Serif" font-size="11.00">discuss&#45;plan</text>
<text xml:space="preserve" text-anchor="middle" x="241.75" y="-391.05" font-family="Helvetica,sans-Serif" font-size="11.00">(iterate before approval)</text>
</g>
<!-- discuss_plan&#45;&gt;ask_approval -->
<g id="edge23" class="edge">
<title>discuss_plan&#45;&gt;ask_approval</title>
<path fill="none" stroke="black" d="M270.81,-419.92C294.7,-434.25 329.03,-454.84 356.95,-471.58"/>
<polygon fill="black" stroke="black" points="354.86,-474.41 365.24,-476.55 358.46,-468.4 354.86,-474.41"/>
<text xml:space="preserve" text-anchor="middle" x="353.24" y="-442.7" font-family="Helvetica,sans-Serif" font-size="9.00">discussion_done</text>
</g>
<!-- implement -->
<g id="node11" class="node">
<title>implement</title>
<path fill="#e1f5fe" stroke="black" d="M475,-423.5C475,-423.5 340.5,-423.5 340.5,-423.5 334.5,-423.5 328.5,-417.5 328.5,-411.5 328.5,-411.5 328.5,-391.5 328.5,-391.5 328.5,-385.5 334.5,-379.5 340.5,-379.5 340.5,-379.5 475,-379.5 475,-379.5 481,-379.5 487,-385.5 487,-391.5 487,-391.5 487,-411.5 487,-411.5 487,-417.5 481,-423.5 475,-423.5"/>
<text xml:space="preserve" text-anchor="middle" x="407.75" y="-409.05" font-family="Helvetica,sans-Serif" font-size="11.00">implement</text>
<text xml:space="preserve" text-anchor="middle" x="407.75" y="-397.05" font-family="Helvetica,sans-Serif" font-size="11.00">(mark in_progress + tasks,</text>
<text xml:space="preserve" text-anchor="middle" x="407.75" y="-385.05" font-family="Helvetica,sans-Serif" font-size="11.00">targeted tests, per&#45;issue loop)</text>
</g>
<!-- validate_success -->
<g id="node12" class="node">
<title>validate_success</title>
<path fill="#e1f5fe" stroke="black" d="M472.38,-333.75C472.38,-333.75 343.12,-333.75 343.12,-333.75 337.12,-333.75 331.12,-327.75 331.12,-321.75 331.12,-321.75 331.12,-301.75 331.12,-301.75 331.12,-295.75 337.12,-289.75 343.12,-289.75 343.12,-289.75 472.38,-289.75 472.38,-289.75 478.38,-289.75 484.38,-295.75 484.38,-301.75 484.38,-301.75 484.38,-321.75 484.38,-321.75 484.38,-327.75 478.38,-333.75 472.38,-333.75"/>
<text xml:space="preserve" text-anchor="middle" x="407.75" y="-319.3" font-family="Helvetica,sans-Serif" font-size="11.00">validate&#45;success</text>
<text xml:space="preserve" text-anchor="middle" x="407.75" y="-307.3" font-family="Helvetica,sans-Serif" font-size="11.00">(full tests + Success Criteria,</text>
<text xml:space="preserve" text-anchor="middle" x="407.75" y="-295.3" font-family="Helvetica,sans-Serif" font-size="11.00">ask if not met)</text>
</g>
<!-- implement&#45;&gt;validate_success -->
<g id="edge8" class="edge">
<title>implement&#45;&gt;validate_success</title>
<path fill="none" stroke="black" d="M407.75,-379.25C407.75,-369.09 407.75,-356.69 407.75,-345.37"/>
<polygon fill="black" stroke="black" points="411.25,-345.61 407.75,-335.61 404.25,-345.61 411.25,-345.61"/>
</g>
<!-- open_prs -->
<g id="node13" class="node">
<title>open_prs</title>
<path fill="#e1f5fe" stroke="black" d="M403.62,-244C403.62,-244 311.88,-244 311.88,-244 305.88,-244 299.88,-238 299.88,-232 299.88,-232 299.88,-212 299.88,-212 299.88,-206 305.88,-200 311.88,-200 311.88,-200 403.62,-200 403.62,-200 409.62,-200 415.62,-206 415.62,-212 415.62,-212 415.62,-232 415.62,-232 415.62,-238 409.62,-244 403.62,-244"/>
<text xml:space="preserve" text-anchor="middle" x="357.75" y="-229.55" font-family="Helvetica,sans-Serif" font-size="11.00">open&#45;prs</text>
<text xml:space="preserve" text-anchor="middle" x="357.75" y="-217.55" font-family="Helvetica,sans-Serif" font-size="11.00">(draft PR(s),</text>
<text xml:space="preserve" text-anchor="middle" x="357.75" y="-205.55" font-family="Helvetica,sans-Serif" font-size="11.00">multi&#45;repo cross&#45;link)</text>
</g>
<!-- validate_success&#45;&gt;open_prs -->
<g id="edge24" class="edge">
<title>validate_success&#45;&gt;open_prs</title>
<path fill="none" stroke="black" d="M376.94,-289.46C371.47,-284.29 366.43,-278.32 363,-271.75 360.43,-266.82 358.83,-261.23 357.87,-255.64"/>
<polygon fill="black" stroke="black" points="361.37,-255.47 356.86,-245.88 354.41,-256.19 361.37,-255.47"/>
<text xml:space="preserve" text-anchor="middle" x="396.38" y="-263.2" font-family="Helvetica,sans-Serif" font-size="9.00">criteria_satisfied</text>
</g>
<!-- validate_success&#45;&gt;terminal -->
<g id="edge25" class="edge">
<title>validate_success&#45;&gt;terminal</title>
<path fill="none" stroke="black" d="M422.41,-289.32C425.43,-283.82 428.17,-277.76 429.75,-271.75 430.85,-267.55 429.81,-266.33 429.75,-262 428.86,-194.53 428.03,-177.67 425.75,-110.25 425.47,-102.01 425.14,-93.25 424.8,-84.77"/>
<polygon fill="black" stroke="black" points="428.3,-84.81 424.4,-74.96 421.31,-85.1 428.3,-84.81"/>
<text xml:space="preserve" text-anchor="middle" x="455.88" y="-173.45" font-family="Helvetica,sans-Serif" font-size="9.00">user_blocked</text>
</g>
<!-- summarize -->
<g id="node14" class="node">
<title>summarize</title>
<path fill="#e1f5fe" stroke="black" d="M405.12,-154.25C405.12,-154.25 310.38,-154.25 310.38,-154.25 304.38,-154.25 298.38,-148.25 298.38,-142.25 298.38,-142.25 298.38,-122.25 298.38,-122.25 298.38,-116.25 304.38,-110.25 310.38,-110.25 310.38,-110.25 405.12,-110.25 405.12,-110.25 411.12,-110.25 417.12,-116.25 417.12,-122.25 417.12,-122.25 417.12,-142.25 417.12,-142.25 417.12,-148.25 411.12,-154.25 405.12,-154.25"/>
<text xml:space="preserve" text-anchor="middle" x="357.75" y="-139.8" font-family="Helvetica,sans-Serif" font-size="11.00">summarize</text>
<text xml:space="preserve" text-anchor="middle" x="357.75" y="-127.8" font-family="Helvetica,sans-Serif" font-size="11.00">(final summary +</text>
<text xml:space="preserve" text-anchor="middle" x="357.75" y="-115.8" font-family="Helvetica,sans-Serif" font-size="11.00">next&#45;step suggestion)</text>
</g>
<!-- open_prs&#45;&gt;summarize -->
<g id="edge9" class="edge">
<title>open_prs&#45;&gt;summarize</title>
<path fill="none" stroke="black" d="M357.75,-199.75C357.75,-189.59 357.75,-177.19 357.75,-165.87"/>
<polygon fill="black" stroke="black" points="361.25,-166.11 357.75,-156.11 354.25,-166.11 361.25,-166.11"/>
</g>
<!-- summarize&#45;&gt;terminal -->
<g id="edge10" class="edge">
<title>summarize&#45;&gt;terminal</title>
<path fill="none" stroke="black" d="M372.5,-110C379.35,-100.14 387.71,-88.09 395.64,-76.68"/>
<polygon fill="black" stroke="black" points="398.45,-78.75 401.28,-68.54 392.7,-74.76 398.45,-78.75"/>
</g>
<!-- dispatch_mode&#45;&gt;render_plan_and_exit -->
<g id="edge11" class="edge">
<title>dispatch_mode&#45;&gt;render_plan_and_exit</title>
<path fill="none" stroke="black" d="M122.3,-973.02C116.18,-965.71 109.87,-957.54 104.75,-949.5 90.41,-926.97 77.79,-899.47 69.1,-878.59"/>
<polygon fill="black" stroke="black" points="72.38,-877.39 65.37,-869.45 65.9,-880.03 72.38,-877.39"/>
<text xml:space="preserve" text-anchor="middle" x="118.25" y="-940.95" font-family="Helvetica,sans-Serif" font-size="9.00">review</text>
</g>
<!-- dispatch_mode&#45;&gt;verify_merged -->
<g id="edge12" class="edge">
<title>dispatch_mode&#45;&gt;verify_merged</title>
<path fill="none" stroke="black" d="M145.75,-967.25C145.75,-949.02 145.75,-925.58 145.75,-904.75 145.75,-904.75 145.75,-904.75 145.75,-310.75 145.75,-292.48 145.75,-272.07 145.75,-255.54"/>
<polygon fill="black" stroke="black" points="149.25,-255.79 145.75,-245.79 142.25,-255.79 149.25,-255.79"/>
<text xml:space="preserve" text-anchor="middle" x="155.12" y="-584.57" font-family="Helvetica,sans-Serif" font-size="9.00">retro</text>
</g>
<!-- dispatch_mode&#45;&gt;detect_repo -->
<g id="edge13" class="edge">
<title>dispatch_mode&#45;&gt;detect_repo</title>
<path fill="none" stroke="black" d="M193.48,-978.96C230.86,-963.65 282.84,-942.37 321.56,-926.52"/>
<polygon fill="black" stroke="black" points="322.77,-929.81 330.7,-922.78 320.12,-923.33 322.77,-929.81"/>
<text xml:space="preserve" text-anchor="middle" x="301.75" y="-940.95" font-family="Helvetica,sans-Serif" font-size="9.00">normal</text>
</g>
<!-- verify_worktree&#45;&gt;detect_inflight -->
<g id="edge16" class="edge">
<title>verify_worktree&#45;&gt;detect_inflight</title>
<path fill="none" stroke="black" d="M469.75,-741.28C469.75,-730.46 469.75,-718.33 469.75,-707.43"/>
<polygon fill="black" stroke="black" points="473.25,-707.73 469.75,-697.73 466.25,-707.73 473.25,-707.73"/>
<text xml:space="preserve" text-anchor="middle" x="494.88" y="-715.2" font-family="Helvetica,sans-Serif" font-size="9.00">worktree_ok</text>
</g>
<!-- verify_worktree&#45;&gt;terminal -->
<g id="edge17" class="edge">
<title>verify_worktree&#45;&gt;terminal</title>
<path fill="none" stroke="black" d="M546.95,-756.97C589.08,-743.37 632.75,-718.72 632.75,-675 632.75,-675 632.75,-675 632.75,-131.25 632.75,-60.93 533.33,-43.05 471.3,-38.74"/>
<polygon fill="black" stroke="black" points="471.51,-35.25 461.32,-38.16 471.1,-42.24 471.51,-35.25"/>
<text xml:space="preserve" text-anchor="middle" x="668.75" y="-397.82" font-family="Helvetica,sans-Serif" font-size="9.00">worktree_missing</text>
</g>
<!-- ask_approval&#45;&gt;discuss_plan -->
<g id="edge21" class="edge">
<title>ask_approval&#45;&gt;discuss_plan</title>
<path fill="none" stroke="black" d="M303.18,-490.98C278.99,-483.71 255.84,-471.5 240.75,-451.25 236.49,-445.52 235.14,-438.28 235.25,-431.15"/>
<polygon fill="black" stroke="black" points="238.71,-431.71 236.32,-421.39 231.75,-430.95 238.71,-431.71"/>
<text xml:space="preserve" text-anchor="middle" x="267.75" y="-442.7" font-family="Helvetica,sans-Serif" font-size="9.00">user_discuss</text>
</g>
<!-- ask_approval&#45;&gt;implement -->
<g id="edge20" class="edge">
<title>ask_approval&#45;&gt;implement</title>
<path fill="none" stroke="black" d="M405.71,-469.05C406.04,-458.22 406.41,-446.04 406.75,-435.1"/>
<polygon fill="black" stroke="black" points="410.24,-435.45 407.05,-425.34 403.24,-435.23 410.24,-435.45"/>
<text xml:space="preserve" text-anchor="middle" x="435.02" y="-442.7" font-family="Helvetica,sans-Serif" font-size="9.00">user_approve</text>
</g>
<!-- ask_approval&#45;&gt;terminal -->
<g id="edge22" class="edge">
<title>ask_approval&#45;&gt;terminal</title>
<path fill="none" stroke="black" d="M453.32,-479.56C482.79,-463.4 514.75,-437.75 514.75,-402.5 514.75,-402.5 514.75,-402.5 514.75,-131.25 514.75,-100.47 489.14,-76.1 464.94,-59.95"/>
<polygon fill="black" stroke="black" points="467.05,-57.15 456.72,-54.77 463.31,-63.07 467.05,-57.15"/>
<text xml:space="preserve" text-anchor="middle" x="539.88" y="-263.2" font-family="Helvetica,sans-Serif" font-size="9.00">user_cancel</text>
</g>
</g>
</svg>
