<?xml version="1.0" encoding="UTF-8" standalone="no"?>
<!DOCTYPE svg PUBLIC "-//W3C//DTD SVG 1.1//EN"
 "http://www.w3.org/Graphics/SVG/1.1/DTD/svg11.dtd">
<!-- Generated by graphviz version 14.1.5 (20260411.2331)
 -->
<!-- Title: commit Pages: 1 -->
<svg width="239pt" height="407pt"
 viewBox="0.00 0.00 239.00 407.00" xmlns="http://www.w3.org/2000/svg" xmlns:xlink="http://www.w3.org/1999/xlink">
<g id="graph0" class="graph" transform="scale(1 1) rotate(0) translate(4 402.75)">
<title>commit</title>
<polygon fill="white" stroke="none" points="-4,4 -4,-402.75 234.85,-402.75 234.85,4 -4,4"/>
<!-- init -->
<g id="node1" class="node">
<title>init</title>
<path fill="#e1f5fe" stroke="black" d="M180.88,-398.75C180.88,-398.75 91.38,-398.75 91.38,-398.75 85.38,-398.75 79.38,-392.75 79.38,-386.75 79.38,-386.75 79.38,-374.75 79.38,-374.75 79.38,-368.75 85.38,-362.75 91.38,-362.75 91.38,-362.75 180.88,-362.75 180.88,-362.75 186.88,-362.75 192.88,-368.75 192.88,-374.75 192.88,-374.75 192.88,-386.75 192.88,-386.75 192.88,-392.75 186.88,-398.75 180.88,-398.75"/>
<text xml:space="preserve" text-anchor="middle" x="136.12" y="-382.3" font-family="Helvetica,sans-Serif" font-size="11.00">init</text>
<text xml:space="preserve" text-anchor="middle" x="136.12" y="-370.3" font-family="Helvetica,sans-Serif" font-size="11.00">(set up walker state)</text>
</g>
<!-- build_plan -->
<g id="node2" class="node">
<title>build_plan</title>
<path fill="#e1f5fe" stroke="black" d="M201.88,-325.75C201.88,-325.75 70.38,-325.75 70.38,-325.75 64.38,-325.75 58.38,-319.75 58.38,-313.75 58.38,-313.75 58.38,-293.75 58.38,-293.75 58.38,-287.75 64.38,-281.75 70.38,-281.75 70.38,-281.75 201.88,-281.75 201.88,-281.75 207.88,-281.75 213.88,-287.75 213.88,-293.75 213.88,-293.75 213.88,-313.75 213.88,-313.75 213.88,-319.75 207.88,-325.75 201.88,-325.75"/>
<text xml:space="preserve" text-anchor="middle" x="136.12" y="-311.3" font-family="Helvetica,sans-Serif" font-size="11.00">build&#45;plan</text>
<text xml:space="preserve" text-anchor="middle" x="136.12" y="-299.3" font-family="Helvetica,sans-Serif" font-size="11.00">(run commit.py, parse JSON,</text>
<text xml:space="preserve" text-anchor="middle" x="136.12" y="-287.3" font-family="Helvetica,sans-Serif" font-size="11.00">surface warnings)</text>
</g>
<!-- init&#45;&gt;build_plan -->
<g id="edge1" class="edge">
<title>init&#45;&gt;build_plan</title>
<path fill="none" stroke="black" d="M136.12,-362.35C136.12,-354.91 136.12,-345.98 136.12,-337.39"/>
<polygon fill="black" stroke="black" points="139.63,-337.58 136.13,-327.58 132.63,-337.58 139.63,-337.58"/>
</g>
<!-- commit_groups -->
<g id="node3" class="node">
<title>commit_groups</title>
<path fill="#e1f5fe" stroke="black" d="M150.25,-236C150.25,-236 12,-236 12,-236 6,-236 0,-230 0,-224 0,-224 0,-204 0,-204 0,-198 6,-192 12,-192 12,-192 150.25,-192 150.25,-192 156.25,-192 162.25,-198 162.25,-204 162.25,-204 162.25,-224 162.25,-224 162.25,-230 156.25,-236 150.25,-236"/>
<text xml:space="preserve" text-anchor="middle" x="81.12" y="-221.55" font-family="Helvetica,sans-Serif" font-size="11.00">commit&#45;groups</text>
<text xml:space="preserve" text-anchor="middle" x="81.12" y="-209.55" font-family="Helvetica,sans-Serif" font-size="11.00">(walk groups in commit_order,</text>
<text xml:space="preserve" text-anchor="middle" x="81.12" y="-197.55" font-family="Helvetica,sans-Serif" font-size="11.00">stage, write message, commit)</text>
</g>
<!-- build_plan&#45;&gt;commit_groups -->
<g id="edge4" class="edge">
<title>build_plan&#45;&gt;commit_groups</title>
<path fill="none" stroke="black" d="M122.64,-281.29C119.06,-275.59 115.19,-269.44 111.62,-263.75 108.02,-258 104.19,-251.87 100.49,-245.97"/>
<polygon fill="black" stroke="black" points="103.55,-244.26 95.28,-237.64 97.62,-247.97 103.55,-244.26"/>
<text xml:space="preserve" text-anchor="middle" x="143.88" y="-255.2" font-family="Helvetica,sans-Serif" font-size="9.00">groups_present</text>
</g>
<!-- terminal -->
<g id="node5" class="node">
<title>terminal</title>
<ellipse fill="#c8e6c9" stroke="black" cx="144.12" cy="-36.62" rx="32.62" ry="32.62"/>
<ellipse fill="none" stroke="black" cx="144.12" cy="-36.62" rx="36.62" ry="36.62"/>
<text xml:space="preserve" text-anchor="middle" x="144.12" y="-32.17" font-family="Helvetica,sans-Serif" font-size="11.00">terminal</text>
</g>
<!-- build_plan&#45;&gt;terminal -->
<g id="edge5" class="edge">
<title>build_plan&#45;&gt;terminal</title>
<path fill="none" stroke="black" d="M163.8,-281.67C168.82,-276.41 173.34,-270.36 176.12,-263.75 201.37,-203.88 181.18,-128.01 163.39,-81.15"/>
<polygon fill="black" stroke="black" points="166.65,-79.89 159.73,-71.87 160.14,-82.45 166.65,-79.89"/>
<text xml:space="preserve" text-anchor="middle" x="208.73" y="-165.45" font-family="Helvetica,sans-Serif" font-size="9.00">no_groups</text>
</g>
<!-- show_result -->
<g id="node4" class="node">
<title>show_result</title>
<path fill="#e1f5fe" stroke="black" d="M144,-146.25C144,-146.25 52.25,-146.25 52.25,-146.25 46.25,-146.25 40.25,-140.25 40.25,-134.25 40.25,-134.25 40.25,-122.25 40.25,-122.25 40.25,-116.25 46.25,-110.25 52.25,-110.25 52.25,-110.25 144,-110.25 144,-110.25 150,-110.25 156,-116.25 156,-122.25 156,-122.25 156,-134.25 156,-134.25 156,-140.25 150,-146.25 144,-146.25"/>
<text xml:space="preserve" text-anchor="middle" x="98.12" y="-129.8" font-family="Helvetica,sans-Serif" font-size="11.00">show&#45;result</text>
<text xml:space="preserve" text-anchor="middle" x="98.12" y="-117.8" font-family="Helvetica,sans-Serif" font-size="11.00">(git log &#45;&#45;oneline &#45;50)</text>
</g>
<!-- commit_groups&#45;&gt;show_result -->
<g id="edge2" class="edge">
<title>commit_groups&#45;&gt;show_result</title>
<path fill="none" stroke="black" d="M85.41,-191.86C87.52,-181.5 90.08,-168.88 92.35,-157.69"/>
<polygon fill="black" stroke="black" points="95.72,-158.68 94.28,-148.18 88.86,-157.29 95.72,-158.68"/>
</g>
<!-- show_result&#45;&gt;terminal -->
<g id="edge3" class="edge">
<title>show_result&#45;&gt;terminal</title>
<path fill="none" stroke="black" d="M106.99,-109.97C111.43,-101.33 117,-90.47 122.47,-79.81"/>
<polygon fill="black" stroke="black" points="125.5,-81.57 126.96,-71.07 119.28,-78.37 125.5,-81.57"/>
</g>
</g>
</svg>
