<?xml version="1.0" encoding="UTF-8" standalone="no"?>
<!DOCTYPE svg PUBLIC "-//W3C//DTD SVG 1.1//EN"
 "http://www.w3.org/Graphics/SVG/1.1/DTD/svg11.dtd">
<!-- Generated by graphviz version 14.1.5 (20260411.2331)
 -->
<!-- Title: sprint_seed Pages: 1 -->
<svg width="365pt" height="735pt"
 viewBox="0.00 0.00 365.00 735.00" xmlns="http://www.w3.org/2000/svg" xmlns:xlink="http://www.w3.org/1999/xlink">
<g id="graph0" class="graph" transform="scale(1 1) rotate(0) translate(4 731.5)">
<title>sprint_seed</title>
<polygon fill="white" stroke="none" points="-4,4 -4,-731.5 361,-731.5 361,4 -4,4"/>
<!-- init -->
<g id="node1" class="node">
<title>init</title>
<path fill="#e1f5fe" stroke="black" d="M318.38,-727.5C318.38,-727.5 147.12,-727.5 147.12,-727.5 141.12,-727.5 135.12,-721.5 135.12,-715.5 135.12,-715.5 135.12,-695.5 135.12,-695.5 135.12,-689.5 141.12,-683.5 147.12,-683.5 147.12,-683.5 318.38,-683.5 318.38,-683.5 324.38,-683.5 330.38,-689.5 330.38,-695.5 330.38,-695.5 330.38,-715.5 330.38,-715.5 330.38,-721.5 324.38,-727.5 318.38,-727.5"/>
<text xml:space="preserve" text-anchor="middle" x="232.75" y="-713.05" font-family="Helvetica,sans-Serif" font-size="11.00">init</text>
<text xml:space="preserve" text-anchor="middle" x="232.75" y="-701.05" font-family="Helvetica,sans-Serif" font-size="11.00">(parse $ARGUMENTS, detect mode,</text>
<text xml:space="preserve" text-anchor="middle" x="232.75" y="-689.05" font-family="Helvetica,sans-Serif" font-size="11.00">Resolve paths)</text>
</g>
<!-- orient -->
<g id="node2" class="node">
<title>orient</title>
<path fill="#e1f5fe" stroke="black" d="M303.38,-646.5C303.38,-646.5 162.12,-646.5 162.12,-646.5 156.12,-646.5 150.12,-640.5 150.12,-634.5 150.12,-634.5 150.12,-622.5 150.12,-622.5 150.12,-616.5 156.12,-610.5 162.12,-610.5 162.12,-610.5 303.38,-610.5 303.38,-610.5 309.38,-610.5 315.38,-616.5 315.38,-622.5 315.38,-622.5 315.38,-634.5 315.38,-634.5 315.38,-640.5 309.38,-646.5 303.38,-646.5"/>
<text xml:space="preserve" text-anchor="middle" x="232.75" y="-630.05" font-family="Helvetica,sans-Serif" font-size="11.00">orient</text>
<text xml:space="preserve" text-anchor="middle" x="232.75" y="-618.05" font-family="Helvetica,sans-Serif" font-size="11.00">(cursory mode&#45;specific context)</text>
</g>
<!-- init&#45;&gt;orient -->
<g id="edge1" class="edge">
<title>init&#45;&gt;orient</title>
<path fill="none" stroke="black" d="M232.75,-683.2C232.75,-675.32 232.75,-666.24 232.75,-657.82"/>
<polygon fill="black" stroke="black" points="236.25,-658.07 232.75,-648.07 229.25,-658.07 236.25,-658.07"/>
</g>
<!-- kickoff -->
<g id="node3" class="node">
<title>kickoff</title>
<path fill="#e1f5fe" stroke="black" d="M309.38,-573.5C309.38,-573.5 156.12,-573.5 156.12,-573.5 150.12,-573.5 144.12,-567.5 144.12,-561.5 144.12,-561.5 144.12,-549.5 144.12,-549.5 144.12,-543.5 150.12,-537.5 156.12,-537.5 156.12,-537.5 309.38,-537.5 309.38,-537.5 315.38,-537.5 321.38,-543.5 321.38,-549.5 321.38,-549.5 321.38,-561.5 321.38,-561.5 321.38,-567.5 315.38,-573.5 309.38,-573.5"/>
<text xml:space="preserve" text-anchor="middle" x="232.75" y="-557.05" font-family="Helvetica,sans-Serif" font-size="11.00">kickoff</text>
<text xml:space="preserve" text-anchor="middle" x="232.75" y="-545.05" font-family="Helvetica,sans-Serif" font-size="11.00">(mode&#45;specific opening message)</text>
</g>
<!-- orient&#45;&gt;kickoff -->
<g id="edge2" class="edge">
<title>orient&#45;&gt;kickoff</title>
<path fill="none" stroke="black" d="M232.75,-610.31C232.75,-602.72 232.75,-593.6 232.75,-585.03"/>
<polygon fill="black" stroke="black" points="236.25,-585.04 232.75,-575.04 229.25,-585.04 236.25,-585.04"/>
</g>
<!-- discuss -->
<g id="node4" class="node">
<title>discuss</title>
<path fill="#e1f5fe" stroke="black" d="M294.38,-500.5C294.38,-500.5 171.12,-500.5 171.12,-500.5 165.12,-500.5 159.12,-494.5 159.12,-488.5 159.12,-488.5 159.12,-468.5 159.12,-468.5 159.12,-462.5 165.12,-456.5 171.12,-456.5 171.12,-456.5 294.38,-456.5 294.38,-456.5 300.38,-456.5 306.38,-462.5 306.38,-468.5 306.38,-468.5 306.38,-488.5 306.38,-488.5 306.38,-494.5 300.38,-500.5 294.38,-500.5"/>
<text xml:space="preserve" text-anchor="middle" x="232.75" y="-486.05" font-family="Helvetica,sans-Serif" font-size="11.00">discuss</text>
<text xml:space="preserve" text-anchor="middle" x="232.75" y="-474.05" font-family="Helvetica,sans-Serif" font-size="11.00">(free&#45;form Q&amp;A,</text>
<text xml:space="preserve" text-anchor="middle" x="232.75" y="-462.05" font-family="Helvetica,sans-Serif" font-size="11.00">pull live context, push back)</text>
</g>
<!-- kickoff&#45;&gt;discuss -->
<g id="edge3" class="edge">
<title>kickoff&#45;&gt;discuss</title>
<path fill="none" stroke="black" d="M232.75,-537.1C232.75,-529.66 232.75,-520.73 232.75,-512.14"/>
<polygon fill="black" stroke="black" points="236.25,-512.33 232.75,-502.33 229.25,-512.33 236.25,-512.33"/>
</g>
<!-- ask_wrap_up -->
<g id="node8" class="node">
<title>ask_wrap_up</title>
<polygon fill="#ffccbc" stroke="black" points="136.75,-410.75 0,-378.75 136.75,-346.75 273.5,-378.75 136.75,-410.75"/>
<text xml:space="preserve" text-anchor="middle" x="136.75" y="-380.3" font-family="Helvetica,sans-Serif" font-size="11.00">ask&#45;wrap&#45;up</text>
<text xml:space="preserve" text-anchor="middle" x="136.75" y="-368.3" font-family="Helvetica,sans-Serif" font-size="11.00">(continue / wrap / cancel)</text>
</g>
<!-- discuss&#45;&gt;ask_wrap_up -->
<g id="edge7" class="edge">
<title>discuss&#45;&gt;ask_wrap_up</title>
<path fill="none" stroke="black" d="M158.85,-459.97C149.16,-454.61 140.45,-447.62 134.25,-438.5 130.66,-433.22 128.98,-427.02 128.48,-420.65"/>
<polygon fill="black" stroke="black" points="131.98,-420.78 128.67,-410.71 124.98,-420.64 131.98,-420.78"/>
<text xml:space="preserve" text-anchor="middle" x="172.5" y="-429.95" font-family="Helvetica,sans-Serif" font-size="9.00">wrap_up_signaled</text>
</g>
<!-- terminal -->
<g id="node9" class="node">
<title>terminal</title>
<ellipse fill="#c8e6c9" stroke="black" cx="228.75" cy="-36.62" rx="32.62" ry="32.62"/>
<ellipse fill="none" stroke="black" cx="228.75" cy="-36.62" rx="36.62" ry="36.62"/>
<text xml:space="preserve" text-anchor="middle" x="228.75" y="-32.17" font-family="Helvetica,sans-Serif" font-size="11.00">terminal</text>
</g>
<!-- discuss&#45;&gt;terminal -->
<g id="edge8" class="edge">
<title>discuss&#45;&gt;terminal</title>
<path fill="none" stroke="black" d="M262,-456.07C282.68,-438.24 306.75,-410.82 306.75,-379.75 306.75,-379.75 306.75,-379.75 306.75,-127.25 306.75,-101.25 287.84,-79.12 268.65,-63.36"/>
<polygon fill="black" stroke="black" points="270.83,-60.63 260.78,-57.29 266.55,-66.17 270.83,-60.63"/>
<text xml:space="preserve" text-anchor="middle" x="331.88" y="-238.45" font-family="Helvetica,sans-Serif" font-size="9.00">user_cancel</text>
</g>
<!-- synthesize -->
<g id="node5" class="node">
<title>synthesize</title>
<path fill="#e1f5fe" stroke="black" d="M179.75,-301C179.75,-301 49.75,-301 49.75,-301 43.75,-301 37.75,-295 37.75,-289 37.75,-289 37.75,-277 37.75,-277 37.75,-271 43.75,-265 49.75,-265 49.75,-265 179.75,-265 179.75,-265 185.75,-265 191.75,-271 191.75,-277 191.75,-277 191.75,-289 191.75,-289 191.75,-295 185.75,-301 179.75,-301"/>
<text xml:space="preserve" text-anchor="middle" x="114.75" y="-284.55" font-family="Helvetica,sans-Serif" font-size="11.00">synthesize</text>
<text xml:space="preserve" text-anchor="middle" x="114.75" y="-272.55" font-family="Helvetica,sans-Serif" font-size="11.00">(refined 2&#45;3 paragraph seed)</text>
</g>
<!-- write_seed -->
<g id="node6" class="node">
<title>write_seed</title>
<path fill="#e1f5fe" stroke="black" d="M181,-219.25C181,-219.25 22.5,-219.25 22.5,-219.25 16.5,-219.25 10.5,-213.25 10.5,-207.25 10.5,-207.25 10.5,-195.25 10.5,-195.25 10.5,-189.25 16.5,-183.25 22.5,-183.25 22.5,-183.25 181,-183.25 181,-183.25 187,-183.25 193,-189.25 193,-195.25 193,-195.25 193,-207.25 193,-207.25 193,-213.25 187,-219.25 181,-219.25"/>
<text xml:space="preserve" text-anchor="middle" x="101.75" y="-202.8" font-family="Helvetica,sans-Serif" font-size="11.00">write&#45;seed</text>
<text xml:space="preserve" text-anchor="middle" x="101.75" y="-190.8" font-family="Helvetica,sans-Serif" font-size="11.00">(write $SESSION_DIR/SEED.md)</text>
</g>
<!-- synthesize&#45;&gt;write_seed -->
<g id="edge4" class="edge">
<title>synthesize&#45;&gt;write_seed</title>
<path fill="none" stroke="black" d="M111.93,-264.69C110.31,-254.76 108.24,-242.05 106.39,-230.69"/>
<polygon fill="black" stroke="black" points="109.87,-230.32 104.81,-221.01 102.96,-231.44 109.87,-230.32"/>
</g>
<!-- handoff -->
<g id="node7" class="node">
<title>handoff</title>
<path fill="#e1f5fe" stroke="black" d="M187.62,-146.25C187.62,-146.25 23.87,-146.25 23.87,-146.25 17.88,-146.25 11.88,-140.25 11.88,-134.25 11.88,-134.25 11.88,-122.25 11.88,-122.25 11.88,-116.25 17.88,-110.25 23.88,-110.25 23.88,-110.25 187.62,-110.25 187.62,-110.25 193.62,-110.25 199.62,-116.25 199.62,-122.25 199.62,-122.25 199.62,-134.25 199.62,-134.25 199.62,-140.25 193.62,-146.25 187.62,-146.25"/>
<text xml:space="preserve" text-anchor="middle" x="105.75" y="-129.8" font-family="Helvetica,sans-Serif" font-size="11.00">handoff</text>
<text xml:space="preserve" text-anchor="middle" x="105.75" y="-117.8" font-family="Helvetica,sans-Serif" font-size="11.00">(print path + seed + next command)</text>
</g>
<!-- write_seed&#45;&gt;handoff -->
<g id="edge5" class="edge">
<title>write_seed&#45;&gt;handoff</title>
<path fill="none" stroke="black" d="M102.72,-183.06C103.15,-175.38 103.67,-166.14 104.16,-157.49"/>
<polygon fill="black" stroke="black" points="107.64,-157.97 104.71,-147.79 100.65,-157.57 107.64,-157.97"/>
</g>
<!-- handoff&#45;&gt;terminal -->
<g id="edge6" class="edge">
<title>handoff&#45;&gt;terminal</title>
<path fill="none" stroke="black" d="M129.76,-109.75C147.02,-97.17 170.65,-79.95 190.5,-65.49"/>
<polygon fill="black" stroke="black" points="192.36,-68.47 198.38,-59.75 188.24,-62.81 192.36,-68.47"/>
</g>
<!-- ask_wrap_up&#45;&gt;discuss -->
<g id="edge10" class="edge">
<title>ask_wrap_up&#45;&gt;discuss</title>
<path fill="none" stroke="black" d="M178.02,-401.26C189.69,-408.79 201.66,-418.07 210.75,-428.75 215.07,-433.82 218.69,-439.88 221.67,-445.97"/>
<polygon fill="black" stroke="black" points="218.28,-446.94 225.49,-454.71 224.69,-444.14 218.28,-446.94"/>
<text xml:space="preserve" text-anchor="middle" x="246.73" y="-429.95" font-family="Helvetica,sans-Serif" font-size="9.00">user_continue</text>
</g>
<!-- ask_wrap_up&#45;&gt;synthesize -->
<g id="edge9" class="edge">
<title>ask_wrap_up&#45;&gt;synthesize</title>
<path fill="none" stroke="black" d="M129.79,-348.08C127.12,-336.7 124.08,-323.73 121.43,-312.46"/>
<polygon fill="black" stroke="black" points="124.89,-311.87 119.2,-302.94 118.07,-313.47 124.89,-311.87"/>
<text xml:space="preserve" text-anchor="middle" x="154.72" y="-320.2" font-family="Helvetica,sans-Serif" font-size="9.00">user_wrap_up</text>
</g>
<!-- ask_wrap_up&#45;&gt;terminal -->
<g id="edge11" class="edge">
<title>ask_wrap_up&#45;&gt;terminal</title>
<path fill="none" stroke="black" d="M177.91,-356.06C202.4,-339.89 228.75,-315.24 228.75,-284 228.75,-284 228.75,-284 228.75,-127.25 228.75,-113.39 228.75,-98.32 228.75,-84.57"/>
<polygon fill="black" stroke="black" points="232.25,-84.9 228.75,-74.9 225.25,-84.9 232.25,-84.9"/>
<text xml:space="preserve" text-anchor="middle" x="253.88" y="-197.57" font-family="Helvetica,sans-Serif" font-size="9.00">user_cancel</text>
</g>
</g>
</svg>
