<?xml version="1.0" encoding="UTF-8" standalone="no"?>
<!DOCTYPE svg PUBLIC "-//W3C//DTD SVG 1.1//EN"
 "http://www.w3.org/Graphics/SVG/1.1/DTD/svg11.dtd">
<!-- Generated by graphviz version 14.1.5 (20260411.2331)
 -->
<!-- Title: sprint_plan Pages: 1 -->
<svg width="629pt" height="1312pt"
 viewBox="0.00 0.00 629.00 1312.00" xmlns="http://www.w3.org/2000/svg" xmlns:xlink="http://www.w3.org/1999/xlink">
<g id="graph0" class="graph" transform="scale(1 1) rotate(0) translate(4 1308.25)">
<title>sprint_plan</title>
<polygon fill="white" stroke="none" points="-4,4 -4,-1308.25 625.25,-1308.25 625.25,4 -4,4"/>
<!-- init -->
<g id="node1" class="node">
<title>init</title>
<path fill="#e1f5fe" stroke="black" d="M194.62,-1304.25C194.62,-1304.25 108.88,-1304.25 108.88,-1304.25 102.88,-1304.25 96.88,-1298.25 96.88,-1292.25 96.88,-1292.25 96.88,-1280.25 96.88,-1280.25 96.88,-1274.25 102.88,-1268.25 108.88,-1268.25 108.88,-1268.25 194.62,-1268.25 194.62,-1268.25 200.62,-1268.25 206.62,-1274.25 206.62,-1280.25 206.62,-1280.25 206.62,-1292.25 206.62,-1292.25 206.62,-1298.25 200.62,-1304.25 194.62,-1304.25"/>
<text xml:space="preserve" text-anchor="middle" x="151.75" y="-1287.8" font-family="Helvetica,sans-Serif" font-size="11.00">init</text>
<text xml:space="preserve" text-anchor="middle" x="151.75" y="-1275.8" font-family="Helvetica,sans-Serif" font-size="11.00">(parse args + flags)</text>
</g>
<!-- orient -->
<g id="node2" class="node">
<title>orient</title>
<path fill="#e1f5fe" stroke="black" d="M222.38,-1231.25C222.38,-1231.25 81.13,-1231.25 81.13,-1231.25 75.12,-1231.25 69.12,-1225.25 69.12,-1219.25 69.12,-1219.25 69.12,-1199.25 69.12,-1199.25 69.12,-1193.25 75.12,-1187.25 81.12,-1187.25 81.12,-1187.25 222.38,-1187.25 222.38,-1187.25 228.38,-1187.25 234.38,-1193.25 234.38,-1199.25 234.38,-1199.25 234.38,-1219.25 234.38,-1219.25 234.38,-1225.25 228.38,-1231.25 222.38,-1231.25"/>
<text xml:space="preserve" text-anchor="middle" x="151.75" y="-1216.8" font-family="Helvetica,sans-Serif" font-size="11.00">orient</text>
<text xml:space="preserve" text-anchor="middle" x="151.75" y="-1204.8" font-family="Helvetica,sans-Serif" font-size="11.00">(project state, ledger,</text>
<text xml:space="preserve" text-anchor="middle" x="151.75" y="-1192.8" font-family="Helvetica,sans-Serif" font-size="11.00">recent sprints, tier assessment)</text>
</g>
<!-- init&#45;&gt;orient -->
<g id="edge1" class="edge">
<title>init&#45;&gt;orient</title>
<path fill="none" stroke="black" d="M151.75,-1267.85C151.75,-1260.41 151.75,-1251.48 151.75,-1242.89"/>
<polygon fill="black" stroke="black" points="155.25,-1243.08 151.75,-1233.08 148.25,-1243.08 155.25,-1243.08"/>
</g>
<!-- phase_selection -->
<g id="node13" class="node">
<title>phase_selection</title>
<polygon fill="#ffccbc" stroke="black" points="151.75,-1150.25 0,-1106.25 151.75,-1062.25 303.5,-1106.25 151.75,-1150.25"/>
<text xml:space="preserve" text-anchor="middle" x="151.75" y="-1113.8" font-family="Helvetica,sans-Serif" font-size="11.00">phase&#45;selection</text>
<text xml:space="preserve" text-anchor="middle" x="151.75" y="-1101.8" font-family="Helvetica,sans-Serif" font-size="11.00">(Auto / Full / Base / Custom;</text>
<text xml:space="preserve" text-anchor="middle" x="151.75" y="-1089.8" font-family="Helvetica,sans-Serif" font-size="11.00">or flag&#45;skip)</text>
</g>
<!-- orient&#45;&gt;phase_selection -->
<g id="edge2" class="edge">
<title>orient&#45;&gt;phase_selection</title>
<path fill="none" stroke="black" d="M151.75,-1186.83C151.75,-1179.5 151.75,-1170.93 151.75,-1162.18"/>
<polygon fill="black" stroke="black" points="155.25,-1162.19 151.75,-1152.19 148.25,-1162.19 155.25,-1162.19"/>
</g>
<!-- intent -->
<g id="node3" class="node">
<title>intent</title>
<path fill="#e1f5fe" stroke="black" d="M225,-1025.25C225,-1025.25 78.5,-1025.25 78.5,-1025.25 72.5,-1025.25 66.5,-1019.25 66.5,-1013.25 66.5,-1013.25 66.5,-993.25 66.5,-993.25 66.5,-987.25 72.5,-981.25 78.5,-981.25 78.5,-981.25 225,-981.25 225,-981.25 231,-981.25 237,-987.25 237,-993.25 237,-993.25 237,-1013.25 237,-1013.25 237,-1019.25 231,-1025.25 225,-1025.25"/>
<text xml:space="preserve" text-anchor="middle" x="151.75" y="-1010.8" font-family="Helvetica,sans-Serif" font-size="11.00">intent</text>
<text xml:space="preserve" text-anchor="middle" x="151.75" y="-998.8" font-family="Helvetica,sans-Serif" font-size="11.00">(write intent.md;</text>
<text xml:space="preserve" text-anchor="middle" x="151.75" y="-986.8" font-family="Helvetica,sans-Serif" font-size="11.00">surface area decisions baked in)</text>
</g>
<!-- dry_exit -->
<g id="node4" class="node">
<title>dry_exit</title>
<path fill="#e1f5fe" stroke="black" d="M164.75,-873.5C164.75,-873.5 76.75,-873.5 76.75,-873.5 70.75,-873.5 64.75,-867.5 64.75,-861.5 64.75,-861.5 64.75,-841.5 64.75,-841.5 64.75,-835.5 70.75,-829.5 76.75,-829.5 76.75,-829.5 164.75,-829.5 164.75,-829.5 170.75,-829.5 176.75,-835.5 176.75,-841.5 176.75,-841.5 176.75,-861.5 176.75,-861.5 176.75,-867.5 170.75,-873.5 164.75,-873.5"/>
<text xml:space="preserve" text-anchor="middle" x="120.75" y="-859.05" font-family="Helvetica,sans-Serif" font-size="11.00">dry&#45;exit</text>
<text xml:space="preserve" text-anchor="middle" x="120.75" y="-847.05" font-family="Helvetica,sans-Serif" font-size="11.00">(&#45;&#45;dry: print preview,</text>
<text xml:space="preserve" text-anchor="middle" x="120.75" y="-835.05" font-family="Helvetica,sans-Serif" font-size="11.00">stop)</text>
</g>
<!-- intent&#45;&gt;dry_exit -->
<g id="edge10" class="edge">
<title>intent&#45;&gt;dry_exit</title>
<path fill="none" stroke="black" d="M147.31,-980.79C142.13,-955.77 133.51,-914.14 127.5,-885.12"/>
<polygon fill="black" stroke="black" points="130.94,-884.48 125.49,-875.39 124.09,-885.89 130.94,-884.48"/>
<text xml:space="preserve" text-anchor="middle" x="159.07" y="-954.7" font-family="Helvetica,sans-Serif" font-size="9.00">dry_run</text>
</g>
<!-- draft -->
<g id="node5" class="node">
<title>draft</title>
<path fill="#e1f5fe" stroke="black" d="M274.5,-935.5C274.5,-935.5 167,-935.5 167,-935.5 161,-935.5 155,-929.5 155,-923.5 155,-923.5 155,-903.5 155,-903.5 155,-897.5 161,-891.5 167,-891.5 167,-891.5 274.5,-891.5 274.5,-891.5 280.5,-891.5 286.5,-897.5 286.5,-903.5 286.5,-903.5 286.5,-923.5 286.5,-923.5 286.5,-929.5 280.5,-935.5 274.5,-935.5"/>
<text xml:space="preserve" text-anchor="middle" x="220.75" y="-921.05" font-family="Helvetica,sans-Serif" font-size="11.00">draft</text>
<text xml:space="preserve" text-anchor="middle" x="220.75" y="-909.05" font-family="Helvetica,sans-Serif" font-size="11.00">(parallel orch + opposite</text>
<text xml:space="preserve" text-anchor="middle" x="220.75" y="-897.05" font-family="Helvetica,sans-Serif" font-size="11.00">drafts, wait for both)</text>
</g>
<!-- intent&#45;&gt;draft -->
<g id="edge11" class="edge">
<title>intent&#45;&gt;draft</title>
<path fill="none" stroke="black" d="M168.45,-981C177.03,-970.09 187.64,-956.6 197.05,-944.64"/>
<polygon fill="black" stroke="black" points="199.6,-947.06 203.03,-937.04 194.09,-942.73 199.6,-947.06"/>
<text xml:space="preserve" text-anchor="middle" x="202.57" y="-954.7" font-family="Helvetica,sans-Serif" font-size="9.00">normal</text>
</g>
<!-- terminal -->
<g id="node16" class="node">
<title>terminal</title>
<ellipse fill="#c8e6c9" stroke="black" cx="397.75" cy="-36.62" rx="32.62" ry="32.62"/>
<ellipse fill="none" stroke="black" cx="397.75" cy="-36.62" rx="36.62" ry="36.62"/>
<text xml:space="preserve" text-anchor="middle" x="397.75" y="-32.17" font-family="Helvetica,sans-Serif" font-size="11.00">terminal</text>
</g>
<!-- dry_exit&#45;&gt;terminal -->
<g id="edge4" class="edge">
<title>dry_exit&#45;&gt;terminal</title>
<path fill="none" stroke="black" d="M120.08,-829.22C119.5,-808.78 118.75,-777.03 118.75,-749.5 118.75,-749.5 118.75,-749.5 118.75,-131.25 118.75,-83.04 270.37,-55.03 350.07,-43.63"/>
<polygon fill="black" stroke="black" points="350.35,-47.13 359.78,-42.28 349.39,-40.19 350.35,-47.13"/>
</g>
<!-- critique -->
<g id="node6" class="node">
<title>critique</title>
<path fill="#e1f5fe" stroke="black" d="M283.12,-811.5C283.12,-811.5 158.38,-811.5 158.38,-811.5 152.38,-811.5 146.38,-805.5 146.38,-799.5 146.38,-799.5 146.38,-779.5 146.38,-779.5 146.38,-773.5 152.38,-767.5 158.38,-767.5 158.38,-767.5 283.12,-767.5 283.12,-767.5 289.12,-767.5 295.12,-773.5 295.12,-779.5 295.12,-779.5 295.12,-799.5 295.12,-799.5 295.12,-805.5 289.12,-811.5 283.12,-811.5"/>
<text xml:space="preserve" text-anchor="middle" x="220.75" y="-797.05" font-family="Helvetica,sans-Serif" font-size="11.00">critique</text>
<text xml:space="preserve" text-anchor="middle" x="220.75" y="-785.05" font-family="Helvetica,sans-Serif" font-size="11.00">(parallel symmetric critiques</text>
<text xml:space="preserve" text-anchor="middle" x="220.75" y="-773.05" font-family="Helvetica,sans-Serif" font-size="11.00">of both drafts)</text>
</g>
<!-- draft&#45;&gt;critique -->
<g id="edge12" class="edge">
<title>draft&#45;&gt;critique</title>
<path fill="none" stroke="black" d="M220.75,-891.24C220.75,-872.47 220.75,-844.79 220.75,-823.19"/>
<polygon fill="black" stroke="black" points="224.25,-823.43 220.75,-813.43 217.25,-823.43 224.25,-823.43"/>
<text xml:space="preserve" text-anchor="middle" x="248.12" y="-847.82" font-family="Helvetica,sans-Serif" font-size="9.00">merge_mode</text>
</g>
<!-- merge -->
<g id="node7" class="node">
<title>merge</title>
<path fill="#e1f5fe" stroke="black" d="M409.38,-730.5C409.38,-730.5 244.12,-730.5 244.12,-730.5 238.12,-730.5 232.12,-724.5 232.12,-718.5 232.12,-718.5 232.12,-698.5 232.12,-698.5 232.12,-692.5 238.12,-686.5 244.12,-686.5 244.12,-686.5 409.38,-686.5 409.38,-686.5 415.38,-686.5 421.38,-692.5 421.38,-698.5 421.38,-698.5 421.38,-718.5 421.38,-718.5 421.38,-724.5 415.38,-730.5 409.38,-730.5"/>
<text xml:space="preserve" text-anchor="middle" x="326.75" y="-716.05" font-family="Helvetica,sans-Serif" font-size="11.00">merge</text>
<text xml:space="preserve" text-anchor="middle" x="326.75" y="-704.05" font-family="Helvetica,sans-Serif" font-size="11.00">(synthesize SPRINT.md or promote;</text>
<text xml:space="preserve" text-anchor="middle" x="326.75" y="-692.05" font-family="Helvetica,sans-Serif" font-size="11.00">sizing gate inline)</text>
</g>
<!-- draft&#45;&gt;merge -->
<g id="edge13" class="edge">
<title>draft&#45;&gt;merge</title>
<path fill="none" stroke="black" d="M260.7,-891.03C267.7,-885.97 274.44,-880.09 279.75,-873.5 310.55,-835.26 321.17,-777.78 324.83,-742.01"/>
<polygon fill="black" stroke="black" points="328.29,-742.55 325.69,-732.28 321.32,-741.93 328.29,-742.55"/>
<text xml:space="preserve" text-anchor="middle" x="352.4" y="-785.82" font-family="Helvetica,sans-Serif" font-size="9.00">promote_mode</text>
</g>
<!-- critique&#45;&gt;merge -->
<g id="edge5" class="edge">
<title>critique&#45;&gt;merge</title>
<path fill="none" stroke="black" d="M249.44,-767.12C261.57,-758.07 275.88,-747.41 288.87,-737.73"/>
<polygon fill="black" stroke="black" points="290.9,-740.58 296.83,-731.8 286.72,-734.96 290.9,-740.58"/>
</g>
<!-- reviews -->
<g id="node8" class="node">
<title>reviews</title>
<path fill="#e1f5fe" stroke="black" d="M380.88,-649.5C380.88,-649.5 272.62,-649.5 272.62,-649.5 266.62,-649.5 260.62,-643.5 260.62,-637.5 260.62,-637.5 260.62,-617.5 260.62,-617.5 260.62,-611.5 266.62,-605.5 272.62,-605.5 272.62,-605.5 380.88,-605.5 380.88,-605.5 386.88,-605.5 392.88,-611.5 392.88,-617.5 392.88,-617.5 392.88,-637.5 392.88,-637.5 392.88,-643.5 386.88,-649.5 380.88,-649.5"/>
<text xml:space="preserve" text-anchor="middle" x="326.75" y="-635.05" font-family="Helvetica,sans-Serif" font-size="11.00">reviews</text>
<text xml:space="preserve" text-anchor="middle" x="326.75" y="-623.05" font-family="Helvetica,sans-Serif" font-size="11.00">(parallel enabled lenses,</text>
<text xml:space="preserve" text-anchor="middle" x="326.75" y="-611.05" font-family="Helvetica,sans-Serif" font-size="11.00">routed by expert side)</text>
</g>
<!-- merge&#45;&gt;reviews -->
<g id="edge6" class="edge">
<title>merge&#45;&gt;reviews</title>
<path fill="none" stroke="black" d="M326.75,-686.32C326.75,-678.53 326.75,-669.52 326.75,-660.96"/>
<polygon fill="black" stroke="black" points="330.25,-661.24 326.75,-651.24 323.25,-661.24 330.25,-661.24"/>
</g>
<!-- incorporate_findings -->
<g id="node9" class="node">
<title>incorporate_findings</title>
<path fill="#e1f5fe" stroke="black" d="M374.88,-568.5C374.88,-568.5 278.62,-568.5 278.62,-568.5 272.62,-568.5 266.62,-562.5 266.62,-556.5 266.62,-556.5 266.62,-536.5 266.62,-536.5 266.62,-530.5 272.62,-524.5 278.62,-524.5 278.62,-524.5 374.88,-524.5 374.88,-524.5 380.88,-524.5 386.88,-530.5 386.88,-536.5 386.88,-536.5 386.88,-556.5 386.88,-556.5 386.88,-562.5 380.88,-568.5 374.88,-568.5"/>
<text xml:space="preserve" text-anchor="middle" x="326.75" y="-554.05" font-family="Helvetica,sans-Serif" font-size="11.00">incorporate&#45;findings</text>
<text xml:space="preserve" text-anchor="middle" x="326.75" y="-542.05" font-family="Helvetica,sans-Serif" font-size="11.00">(patch review findings</text>
<text xml:space="preserve" text-anchor="middle" x="326.75" y="-530.05" font-family="Helvetica,sans-Serif" font-size="11.00">into SPRINT.md)</text>
</g>
<!-- reviews&#45;&gt;incorporate_findings -->
<g id="edge7" class="edge">
<title>reviews&#45;&gt;incorporate_findings</title>
<path fill="none" stroke="black" d="M326.75,-605.32C326.75,-597.53 326.75,-588.52 326.75,-579.96"/>
<polygon fill="black" stroke="black" points="330.25,-580.24 326.75,-570.24 323.25,-580.24 330.25,-580.24"/>
</g>
<!-- recommend_execution -->
<g id="node10" class="node">
<title>recommend_execution</title>
<path fill="#e1f5fe" stroke="black" d="M401.5,-345C401.5,-345 246,-345 246,-345 240,-345 234,-339 234,-333 234,-333 234,-313 234,-313 234,-307 240,-301 246,-301 246,-301 401.5,-301 401.5,-301 407.5,-301 413.5,-307 413.5,-313 413.5,-313 413.5,-333 413.5,-333 413.5,-339 407.5,-345 401.5,-345"/>
<text xml:space="preserve" text-anchor="middle" x="323.75" y="-330.55" font-family="Helvetica,sans-Serif" font-size="11.00">recommend&#45;execution</text>
<text xml:space="preserve" text-anchor="middle" x="323.75" y="-318.55" font-family="Helvetica,sans-Serif" font-size="11.00">(write Recommended Execution +</text>
<text xml:space="preserve" text-anchor="middle" x="323.75" y="-306.55" font-family="Helvetica,sans-Serif" font-size="11.00">DoR pre&#45;flight)</text>
</g>
<!-- incorporate_findings&#45;&gt;recommend_execution -->
<g id="edge15" class="edge">
<title>incorporate_findings&#45;&gt;recommend_execution</title>
<path fill="none" stroke="black" d="M326.46,-524.26C325.94,-485.49 324.82,-403.02 324.2,-356.92"/>
<polygon fill="black" stroke="black" points="327.7,-356.96 324.06,-347.01 320.7,-357.05 327.7,-356.96"/>
<text xml:space="preserve" text-anchor="middle" x="340.09" y="-431.07" font-family="Helvetica,sans-Serif" font-size="9.00">normal</text>
</g>
<!-- ask_spike -->
<g id="node14" class="node">
<title>ask_spike</title>
<polygon fill="#ffccbc" stroke="black" points="495.75,-478.75 370.25,-434.75 495.75,-390.75 621.25,-434.75 495.75,-478.75"/>
<text xml:space="preserve" text-anchor="middle" x="495.75" y="-442.3" font-family="Helvetica,sans-Serif" font-size="11.00">ask&#45;spike</text>
<text xml:space="preserve" text-anchor="middle" x="495.75" y="-430.3" font-family="Helvetica,sans-Serif" font-size="11.00">(spike / accept&#45;risk /</text>
<text xml:space="preserve" text-anchor="middle" x="495.75" y="-418.3" font-family="Helvetica,sans-Serif" font-size="11.00">narrow&#45;scope / cancel)</text>
</g>
<!-- incorporate_findings&#45;&gt;ask_spike -->
<g id="edge14" class="edge">
<title>incorporate_findings&#45;&gt;ask_spike</title>
<path fill="none" stroke="black" d="M359.74,-524.07C383.37,-508.73 415.69,-487.74 442.89,-470.07"/>
<polygon fill="black" stroke="black" points="444.53,-473.18 451.01,-464.8 440.72,-467.31 444.53,-473.18"/>
<text xml:space="preserve" text-anchor="middle" x="435.26" y="-497.95" font-family="Helvetica,sans-Serif" font-size="9.00">high_uncertainty</text>
</g>
<!-- ask_approval -->
<g id="node15" class="node">
<title>ask_approval</title>
<polygon fill="#ffccbc" stroke="black" points="320.75,-264 181,-232 320.75,-200 460.5,-232 320.75,-264"/>
<text xml:space="preserve" text-anchor="middle" x="320.75" y="-233.55" font-family="Helvetica,sans-Serif" font-size="11.00">ask&#45;approval</text>
<text xml:space="preserve" text-anchor="middle" x="320.75" y="-221.55" font-family="Helvetica,sans-Serif" font-size="11.00">(approve / revise / cancel)</text>
</g>
<!-- recommend_execution&#45;&gt;ask_approval -->
<g id="edge8" class="edge">
<title>recommend_execution&#45;&gt;ask_approval</title>
<path fill="none" stroke="black" d="M323.04,-300.9C322.78,-293.25 322.48,-284.32 322.18,-275.48"/>
<polygon fill="black" stroke="black" points="325.68,-275.44 321.85,-265.56 318.69,-275.68 325.68,-275.44"/>
</g>
<!-- discuss_finalize -->
<g id="node11" class="node">
<title>discuss_finalize</title>
<path fill="#e1f5fe" stroke="black" d="M263,-154.25C263,-154.25 158.5,-154.25 158.5,-154.25 152.5,-154.25 146.5,-148.25 146.5,-142.25 146.5,-142.25 146.5,-122.25 146.5,-122.25 146.5,-116.25 152.5,-110.25 158.5,-110.25 158.5,-110.25 263,-110.25 263,-110.25 269,-110.25 275,-116.25 275,-122.25 275,-122.25 275,-142.25 275,-142.25 275,-148.25 269,-154.25 263,-154.25"/>
<text xml:space="preserve" text-anchor="middle" x="210.75" y="-139.8" font-family="Helvetica,sans-Serif" font-size="11.00">discuss&#45;finalize</text>
<text xml:space="preserve" text-anchor="middle" x="210.75" y="-127.8" font-family="Helvetica,sans-Serif" font-size="11.00">(iterate on SPRINT.md,</text>
<text xml:space="preserve" text-anchor="middle" x="210.75" y="-115.8" font-family="Helvetica,sans-Serif" font-size="11.00">back to ask&#45;approval)</text>
</g>
<!-- discuss_finalize&#45;&gt;ask_approval -->
<g id="edge21" class="edge">
<title>discuss_finalize&#45;&gt;ask_approval</title>
<path fill="none" stroke="black" d="M228.92,-154.41C236.9,-163.28 246.58,-173.48 256,-182 262.99,-188.32 270.74,-194.68 278.39,-200.63"/>
<polygon fill="black" stroke="black" points="275.98,-203.19 286.05,-206.47 280.22,-197.63 275.98,-203.19"/>
<text xml:space="preserve" text-anchor="middle" x="290.88" y="-173.45" font-family="Helvetica,sans-Serif" font-size="9.00">discussion_done</text>
</g>
<!-- register -->
<g id="node12" class="node">
<title>register</title>
<path fill="#e1f5fe" stroke="black" d="M370.88,-154.25C370.88,-154.25 304.62,-154.25 304.62,-154.25 298.62,-154.25 292.62,-148.25 292.62,-142.25 292.62,-142.25 292.62,-122.25 292.62,-122.25 292.62,-116.25 298.62,-110.25 304.62,-110.25 304.62,-110.25 370.88,-110.25 370.88,-110.25 376.88,-110.25 382.88,-116.25 382.88,-122.25 382.88,-122.25 382.88,-142.25 382.88,-142.25 382.88,-148.25 376.88,-154.25 370.88,-154.25"/>
<text xml:space="preserve" text-anchor="middle" x="337.75" y="-139.8" font-family="Helvetica,sans-Serif" font-size="11.00">register</text>
<text xml:space="preserve" text-anchor="middle" x="337.75" y="-127.8" font-family="Helvetica,sans-Serif" font-size="11.00">(ledger entry +</text>
<text xml:space="preserve" text-anchor="middle" x="337.75" y="-115.8" font-family="Helvetica,sans-Serif" font-size="11.00">participants list)</text>
</g>
<!-- register&#45;&gt;terminal -->
<g id="edge9" class="edge">
<title>register&#45;&gt;terminal</title>
<path fill="none" stroke="black" d="M351.36,-110C357.52,-100.4 364.99,-88.74 372.13,-77.6"/>
<polygon fill="black" stroke="black" points="375.01,-79.6 377.46,-69.29 369.11,-75.82 375.01,-79.6"/>
</g>
<!-- phase_selection&#45;&gt;intent -->
<g id="edge3" class="edge">
<title>phase_selection&#45;&gt;intent</title>
<path fill="none" stroke="black" d="M151.75,-1061.83C151.75,-1053.52 151.75,-1044.95 151.75,-1037.04"/>
<polygon fill="black" stroke="black" points="155.25,-1037.19 151.75,-1027.19 148.25,-1037.19 155.25,-1037.19"/>
</g>
<!-- ask_spike&#45;&gt;recommend_execution -->
<g id="edge16" class="edge">
<title>ask_spike&#45;&gt;recommend_execution</title>
<path fill="none" stroke="black" d="M451.9,-405.77C425.78,-389.1 392.76,-368.03 366.78,-351.45"/>
<polygon fill="black" stroke="black" points="368.79,-348.58 358.48,-346.15 365.02,-354.48 368.79,-348.58"/>
<text xml:space="preserve" text-anchor="middle" x="423.45" y="-364.2" font-family="Helvetica,sans-Serif" font-size="9.00">user_chose</text>
</g>
<!-- ask_spike&#45;&gt;terminal -->
<g id="edge17" class="edge">
<title>ask_spike&#45;&gt;terminal</title>
<path fill="none" stroke="black" d="M496.33,-390.48C496.55,-370.28 496.75,-345.91 496.75,-324 496.75,-324 496.75,-324 496.75,-131.25 496.75,-98.52 467.84,-73.83 441.27,-58.04"/>
<polygon fill="black" stroke="black" points="443.02,-55.01 432.59,-53.17 439.6,-61.11 443.02,-55.01"/>
<text xml:space="preserve" text-anchor="middle" x="521.88" y="-228.32" font-family="Helvetica,sans-Serif" font-size="9.00">user_cancel</text>
</g>
<!-- ask_approval&#45;&gt;discuss_finalize -->
<g id="edge19" class="edge">
<title>ask_approval&#45;&gt;discuss_finalize</title>
<path fill="none" stroke="black" d="M234.99,-219.27C213.52,-212.05 192.89,-200.47 179.75,-182 175.63,-176.2 176.17,-169.88 179.1,-163.77"/>
<polygon fill="black" stroke="black" points="181.85,-165.95 184.51,-155.69 176.04,-162.05 181.85,-165.95"/>
<text xml:space="preserve" text-anchor="middle" x="203.75" y="-173.45" font-family="Helvetica,sans-Serif" font-size="9.00">user_revise</text>
</g>
<!-- ask_approval&#45;&gt;register -->
<g id="edge18" class="edge">
<title>ask_approval&#45;&gt;register</title>
<path fill="none" stroke="black" d="M325.99,-200.87C327.92,-189.79 330.1,-177.21 332.07,-165.92"/>
<polygon fill="black" stroke="black" points="335.49,-166.69 333.75,-156.23 328.59,-165.49 335.49,-166.69"/>
<text xml:space="preserve" text-anchor="middle" x="359.27" y="-173.45" font-family="Helvetica,sans-Serif" font-size="9.00">user_approve</text>
</g>
<!-- ask_approval&#45;&gt;terminal -->
<g id="edge20" class="edge">
<title>ask_approval&#45;&gt;terminal</title>
<path fill="none" stroke="black" d="M364.86,-209.79C375.47,-202.5 385.53,-193.27 391.75,-182 408.06,-152.42 408.88,-114.03 405.98,-84.27"/>
<polygon fill="black" stroke="black" points="409.47,-83.94 404.84,-74.41 402.52,-84.75 409.47,-83.94"/>
<text xml:space="preserve" text-anchor="middle" x="432.41" y="-128.57" font-family="Helvetica,sans-Serif" font-size="9.00">user_cancel</text>
</g>
</g>
</svg>
