<?xml version="1.0" encoding="UTF-8" standalone="no"?>
<!DOCTYPE svg PUBLIC "-//W3C//DTD SVG 1.1//EN"
 "http://www.w3.org/Graphics/SVG/1.1/DTD/svg11.dtd">
<!-- Generated by graphviz version 14.1.5 (20260411.2331)
 -->
<!-- Title: sprint_plan_to_linear Pages: 1 -->
<svg width="857pt" height="1359pt"
 viewBox="0.00 0.00 857.00 1359.00" xmlns="http://www.w3.org/2000/svg" xmlns:xlink="http://www.w3.org/1999/xlink">
<g id="graph0" class="graph" transform="scale(1 1) rotate(0) translate(4 1354.75)">
<title>sprint_plan_to_linear</title>
<polygon fill="white" stroke="none" points="-4,4 -4,-1354.75 852.88,-1354.75 852.88,4 -4,4"/>
<!-- init -->
<g id="node1" class="node">
<title>init</title>
<path fill="#e1f5fe" stroke="black" d="M765.12,-1350.75C765.12,-1350.75 639.62,-1350.75 639.62,-1350.75 633.62,-1350.75 627.62,-1344.75 627.62,-1338.75 627.62,-1338.75 627.62,-1318.75 627.62,-1318.75 627.62,-1312.75 633.62,-1306.75 639.62,-1306.75 639.62,-1306.75 765.12,-1306.75 765.12,-1306.75 771.12,-1306.75 777.12,-1312.75 777.12,-1318.75 777.12,-1318.75 777.12,-1338.75 777.12,-1338.75 777.12,-1344.75 771.12,-1350.75 765.12,-1350.75"/>
<text xml:space="preserve" text-anchor="middle" x="702.38" y="-1336.3" font-family="Helvetica,sans-Serif" font-size="11.00">init</text>
<text xml:space="preserve" text-anchor="middle" x="702.38" y="-1324.3" font-family="Helvetica,sans-Serif" font-size="11.00">(parse args, resolve project,</text>
<text xml:space="preserve" text-anchor="middle" x="702.38" y="-1312.3" font-family="Helvetica,sans-Serif" font-size="11.00">set paths)</text>
</g>
<!-- parse_sprint -->
<g id="node2" class="node">
<title>parse_sprint</title>
<path fill="#e1f5fe" stroke="black" d="M783.5,-1269.75C783.5,-1269.75 621.25,-1269.75 621.25,-1269.75 615.25,-1269.75 609.25,-1263.75 609.25,-1257.75 609.25,-1257.75 609.25,-1245.75 609.25,-1245.75 609.25,-1239.75 615.25,-1233.75 621.25,-1233.75 621.25,-1233.75 783.5,-1233.75 783.5,-1233.75 789.5,-1233.75 795.5,-1239.75 795.5,-1245.75 795.5,-1245.75 795.5,-1257.75 795.5,-1257.75 795.5,-1263.75 789.5,-1269.75 783.5,-1269.75"/>
<text xml:space="preserve" text-anchor="middle" x="702.38" y="-1253.3" font-family="Helvetica,sans-Serif" font-size="11.00">parse&#45;sprint</text>
<text xml:space="preserve" text-anchor="middle" x="702.38" y="-1241.3" font-family="Helvetica,sans-Serif" font-size="11.00">(read SPRINT.md, extract sections)</text>
</g>
<!-- init&#45;&gt;parse_sprint -->
<g id="edge1" class="edge">
<title>init&#45;&gt;parse_sprint</title>
<path fill="none" stroke="black" d="M702.38,-1306.45C702.38,-1298.57 702.38,-1289.49 702.38,-1281.07"/>
<polygon fill="black" stroke="black" points="705.88,-1281.32 702.38,-1271.32 698.88,-1281.32 705.88,-1281.32"/>
</g>
<!-- fetch_project -->
<g id="node3" class="node">
<title>fetch_project</title>
<path fill="#e1f5fe" stroke="black" d="M744.5,-1196.75C744.5,-1196.75 660.25,-1196.75 660.25,-1196.75 654.25,-1196.75 648.25,-1190.75 648.25,-1184.75 648.25,-1184.75 648.25,-1164.75 648.25,-1164.75 648.25,-1158.75 654.25,-1152.75 660.25,-1152.75 660.25,-1152.75 744.5,-1152.75 744.5,-1152.75 750.5,-1152.75 756.5,-1158.75 756.5,-1164.75 756.5,-1164.75 756.5,-1184.75 756.5,-1184.75 756.5,-1190.75 750.5,-1196.75 744.5,-1196.75"/>
<text xml:space="preserve" text-anchor="middle" x="702.38" y="-1182.3" font-family="Helvetica,sans-Serif" font-size="11.00">fetch&#45;project</text>
<text xml:space="preserve" text-anchor="middle" x="702.38" y="-1170.3" font-family="Helvetica,sans-Serif" font-size="11.00">(linear project view,</text>
<text xml:space="preserve" text-anchor="middle" x="702.38" y="-1158.3" font-family="Helvetica,sans-Serif" font-size="11.00">milestones, issues)</text>
</g>
<!-- parse_sprint&#45;&gt;fetch_project -->
<g id="edge2" class="edge">
<title>parse_sprint&#45;&gt;fetch_project</title>
<path fill="none" stroke="black" d="M702.38,-1233.35C702.38,-1225.91 702.38,-1216.98 702.38,-1208.39"/>
<polygon fill="black" stroke="black" points="705.88,-1208.58 702.38,-1198.58 698.88,-1208.58 705.88,-1208.58"/>
</g>
<!-- ask_milestone_name -->
<g id="node11" class="node">
<title>ask_milestone_name</title>
<polygon fill="#ffccbc" stroke="black" points="702.38,-1115.75 555.88,-1071.75 702.38,-1027.75 848.88,-1071.75 702.38,-1115.75"/>
<text xml:space="preserve" text-anchor="middle" x="702.38" y="-1079.3" font-family="Helvetica,sans-Serif" font-size="11.00">ask&#45;milestone&#45;name</text>
<text xml:space="preserve" text-anchor="middle" x="702.38" y="-1067.3" font-family="Helvetica,sans-Serif" font-size="11.00">(keep / proposed / custom /</text>
<text xml:space="preserve" text-anchor="middle" x="702.38" y="-1055.3" font-family="Helvetica,sans-Serif" font-size="11.00">cancel)</text>
</g>
<!-- fetch_project&#45;&gt;ask_milestone_name -->
<g id="edge3" class="edge">
<title>fetch_project&#45;&gt;ask_milestone_name</title>
<path fill="none" stroke="black" d="M702.38,-1152.33C702.38,-1145 702.38,-1136.43 702.38,-1127.68"/>
<polygon fill="black" stroke="black" points="705.88,-1127.69 702.38,-1117.69 698.88,-1127.69 705.88,-1127.69"/>
</g>
<!-- build_plan -->
<g id="node4" class="node">
<title>build_plan</title>
<path fill="#e1f5fe" stroke="black" d="M479.75,-714.5C479.75,-714.5 349,-714.5 349,-714.5 343,-714.5 337,-708.5 337,-702.5 337,-702.5 337,-682.5 337,-682.5 337,-676.5 343,-670.5 349,-670.5 349,-670.5 479.75,-670.5 479.75,-670.5 485.75,-670.5 491.75,-676.5 491.75,-682.5 491.75,-682.5 491.75,-702.5 491.75,-702.5 491.75,-708.5 485.75,-714.5 479.75,-714.5"/>
<text xml:space="preserve" text-anchor="middle" x="414.38" y="-700.05" font-family="Helvetica,sans-Serif" font-size="11.00">build&#45;plan</text>
<text xml:space="preserve" text-anchor="middle" x="414.38" y="-688.05" font-family="Helvetica,sans-Serif" font-size="11.00">(compose description,</text>
<text xml:space="preserve" text-anchor="middle" x="414.38" y="-676.05" font-family="Helvetica,sans-Serif" font-size="11.00">group issues, match existing)</text>
</g>
<!-- show_plan -->
<g id="node5" class="node">
<title>show_plan</title>
<path fill="#e1f5fe" stroke="black" d="M298.5,-633.5C298.5,-633.5 190.25,-633.5 190.25,-633.5 184.25,-633.5 178.25,-627.5 178.25,-621.5 178.25,-621.5 178.25,-609.5 178.25,-609.5 178.25,-603.5 184.25,-597.5 190.25,-597.5 190.25,-597.5 298.5,-597.5 298.5,-597.5 304.5,-597.5 310.5,-603.5 310.5,-609.5 310.5,-609.5 310.5,-621.5 310.5,-621.5 310.5,-627.5 304.5,-633.5 298.5,-633.5"/>
<text xml:space="preserve" text-anchor="middle" x="244.38" y="-617.05" font-family="Helvetica,sans-Serif" font-size="11.00">show&#45;plan</text>
<text xml:space="preserve" text-anchor="middle" x="244.38" y="-605.05" font-family="Helvetica,sans-Serif" font-size="11.00">(render proposals inline)</text>
</g>
<!-- build_plan&#45;&gt;show_plan -->
<g id="edge4" class="edge">
<title>build_plan&#45;&gt;show_plan</title>
<path fill="none" stroke="black" d="M365.66,-670C343.3,-660.14 316.81,-648.45 294.31,-638.52"/>
<polygon fill="black" stroke="black" points="295.89,-635.4 285.33,-634.56 293.07,-641.8 295.89,-635.4"/>
</g>
<!-- ask_approval -->
<g id="node13" class="node">
<title>ask_approval</title>
<polygon fill="#ffccbc" stroke="black" points="202.38,-560.5 55.88,-528.5 202.37,-496.5 348.88,-528.5 202.38,-560.5"/>
<text xml:space="preserve" text-anchor="middle" x="202.38" y="-530.05" font-family="Helvetica,sans-Serif" font-size="11.00">ask&#45;approval</text>
<text xml:space="preserve" text-anchor="middle" x="202.38" y="-518.05" font-family="Helvetica,sans-Serif" font-size="11.00">(approve / discuss / cancel)</text>
</g>
<!-- show_plan&#45;&gt;ask_approval -->
<g id="edge5" class="edge">
<title>show_plan&#45;&gt;ask_approval</title>
<path fill="none" stroke="black" d="M235.88,-597.29C231.67,-588.78 226.41,-578.14 221.31,-567.83"/>
<polygon fill="black" stroke="black" points="224.56,-566.49 216.99,-559.07 218.28,-569.59 224.56,-566.49"/>
</g>
<!-- discuss_plan -->
<g id="node6" class="node">
<title>discuss_plan</title>
<path fill="#e1f5fe" stroke="black" d="M106.75,-428.75C106.75,-428.75 12,-428.75 12,-428.75 6,-428.75 0,-422.75 0,-416.75 0,-416.75 0,-396.75 0,-396.75 0,-390.75 6,-384.75 12,-384.75 12,-384.75 106.75,-384.75 106.75,-384.75 112.75,-384.75 118.75,-390.75 118.75,-396.75 118.75,-396.75 118.75,-416.75 118.75,-416.75 118.75,-422.75 112.75,-428.75 106.75,-428.75"/>
<text xml:space="preserve" text-anchor="middle" x="59.38" y="-414.3" font-family="Helvetica,sans-Serif" font-size="11.00">discuss&#45;plan</text>
<text xml:space="preserve" text-anchor="middle" x="59.38" y="-402.3" font-family="Helvetica,sans-Serif" font-size="11.00">(iterate on plan,</text>
<text xml:space="preserve" text-anchor="middle" x="59.38" y="-390.3" font-family="Helvetica,sans-Serif" font-size="11.00">back to ask&#45;approval)</text>
</g>
<!-- discuss_plan&#45;&gt;ask_approval -->
<g id="edge19" class="edge">
<title>discuss_plan&#45;&gt;ask_approval</title>
<path fill="none" stroke="black" d="M68.82,-429.12C76.43,-444.42 88.38,-464.68 103.62,-478.5 114.03,-487.93 126.59,-495.98 139.2,-502.66"/>
<polygon fill="black" stroke="black" points="137.43,-505.69 147.94,-507.05 140.58,-499.44 137.43,-505.69"/>
<text xml:space="preserve" text-anchor="middle" x="138.5" y="-469.95" font-family="Helvetica,sans-Serif" font-size="9.00">discussion_done</text>
</g>
<!-- create_milestone -->
<g id="node7" class="node">
<title>create_milestone</title>
<path fill="#e1f5fe" stroke="black" d="M526,-317C526,-317 348.75,-317 348.75,-317 342.75,-317 336.75,-311 336.75,-305 336.75,-305 336.75,-285 336.75,-285 336.75,-279 342.75,-273 348.75,-273 348.75,-273 526,-273 526,-273 532,-273 538,-279 538,-285 538,-285 538,-305 538,-305 538,-311 532,-317 526,-317"/>
<text xml:space="preserve" text-anchor="middle" x="437.38" y="-302.55" font-family="Helvetica,sans-Serif" font-size="11.00">create&#45;milestone</text>
<text xml:space="preserve" text-anchor="middle" x="437.38" y="-290.55" font-family="Helvetica,sans-Serif" font-size="11.00">(linear milestone create/update/lookup,</text>
<text xml:space="preserve" text-anchor="middle" x="437.38" y="-278.55" font-family="Helvetica,sans-Serif" font-size="11.00">rerun_mode&#45;aware)</text>
</g>
<!-- create_issues -->
<g id="node8" class="node">
<title>create_issues</title>
<path fill="#e1f5fe" stroke="black" d="M519.25,-227.25C519.25,-227.25 355.5,-227.25 355.5,-227.25 349.5,-227.25 343.5,-221.25 343.5,-215.25 343.5,-215.25 343.5,-195.25 343.5,-195.25 343.5,-189.25 349.5,-183.25 355.5,-183.25 355.5,-183.25 519.25,-183.25 519.25,-183.25 525.25,-183.25 531.25,-189.25 531.25,-195.25 531.25,-195.25 531.25,-215.25 531.25,-215.25 531.25,-221.25 525.25,-227.25 519.25,-227.25"/>
<text xml:space="preserve" text-anchor="middle" x="437.38" y="-212.8" font-family="Helvetica,sans-Serif" font-size="11.00">create&#45;issues</text>
<text xml:space="preserve" text-anchor="middle" x="437.38" y="-200.8" font-family="Helvetica,sans-Serif" font-size="11.00">(create new + augment/replace/link,</text>
<text xml:space="preserve" text-anchor="middle" x="437.38" y="-188.8" font-family="Helvetica,sans-Serif" font-size="11.00">Blocked&#45;by relationships)</text>
</g>
<!-- create_milestone&#45;&gt;create_issues -->
<g id="edge6" class="edge">
<title>create_milestone&#45;&gt;create_issues</title>
<path fill="none" stroke="black" d="M437.38,-272.75C437.38,-262.59 437.38,-250.19 437.38,-238.87"/>
<polygon fill="black" stroke="black" points="440.88,-239.11 437.38,-229.11 433.88,-239.11 440.88,-239.11"/>
</g>
<!-- finalize -->
<g id="node9" class="node">
<title>finalize</title>
<path fill="#e1f5fe" stroke="black" d="M522,-146.25C522,-146.25 380.75,-146.25 380.75,-146.25 374.75,-146.25 368.75,-140.25 368.75,-134.25 368.75,-134.25 368.75,-122.25 368.75,-122.25 368.75,-116.25 374.75,-110.25 380.75,-110.25 380.75,-110.25 522,-110.25 522,-110.25 528,-110.25 534,-116.25 534,-122.25 534,-122.25 534,-134.25 534,-134.25 534,-140.25 528,-146.25 522,-146.25"/>
<text xml:space="preserve" text-anchor="middle" x="451.38" y="-129.8" font-family="Helvetica,sans-Serif" font-size="11.00">finalize</text>
<text xml:space="preserve" text-anchor="middle" x="451.38" y="-117.8" font-family="Helvetica,sans-Serif" font-size="11.00">(write LINEAR.md + summary)</text>
</g>
<!-- create_issues&#45;&gt;finalize -->
<g id="edge7" class="edge">
<title>create_issues&#45;&gt;finalize</title>
<path fill="none" stroke="black" d="M441.35,-182.95C442.82,-175.07 444.52,-165.99 446.09,-157.57"/>
<polygon fill="black" stroke="black" points="449.52,-158.27 447.91,-147.79 442.64,-156.98 449.52,-158.27"/>
</g>
<!-- terminal -->
<g id="node15" class="node">
<title>terminal</title>
<ellipse fill="#c8e6c9" stroke="black" cx="645.38" cy="-36.62" rx="32.62" ry="32.62"/>
<ellipse fill="none" stroke="black" cx="645.38" cy="-36.62" rx="36.62" ry="36.62"/>
<text xml:space="preserve" text-anchor="middle" x="645.38" y="-32.17" font-family="Helvetica,sans-Serif" font-size="11.00">terminal</text>
</g>
<!-- finalize&#45;&gt;terminal -->
<g id="edge8" class="edge">
<title>finalize&#45;&gt;terminal</title>
<path fill="none" stroke="black" d="M489.24,-109.75C521.62,-94.79 568.21,-73.27 602.06,-57.63"/>
<polygon fill="black" stroke="black" points="603.15,-60.99 610.76,-53.61 600.21,-54.63 603.15,-60.99"/>
</g>
<!-- decide_rerun -->
<g id="node10" class="node">
<title>decide_rerun</title>
<polygon fill="#ffe0b2" stroke="black" points="615.38,-982 477.88,-938 615.38,-894 752.88,-938 615.38,-982"/>
<text xml:space="preserve" text-anchor="middle" x="615.38" y="-945.55" font-family="Helvetica,sans-Serif" font-size="11.00">decide&#45;rerun</text>
<text xml:space="preserve" text-anchor="middle" x="615.38" y="-933.55" font-family="Helvetica,sans-Serif" font-size="11.00">(LINEAR.md exists OR</text>
<text xml:space="preserve" text-anchor="middle" x="615.38" y="-921.55" font-family="Helvetica,sans-Serif" font-size="11.00">name similar to existing?)</text>
</g>
<!-- decide_rerun&#45;&gt;build_plan -->
<g id="edge12" class="edge">
<title>decide_rerun&#45;&gt;build_plan</title>
<path fill="none" stroke="black" d="M533.62,-919.85C493.76,-907.05 449.08,-885.17 423.88,-848.25 399.23,-812.15 402.03,-759.6 407.37,-725.98"/>
<polygon fill="black" stroke="black" points="410.76,-726.88 409.06,-716.42 403.87,-725.66 410.76,-726.88"/>
<text xml:space="preserve" text-anchor="middle" x="442.62" y="-800.57" font-family="Helvetica,sans-Serif" font-size="9.00">no_rerun</text>
</g>
<!-- ask_rerun_mode -->
<g id="node12" class="node">
<title>ask_rerun_mode</title>
<polygon fill="#ffccbc" stroke="black" points="615.38,-848.25 470.38,-804.25 615.38,-760.25 760.38,-804.25 615.38,-848.25"/>
<text xml:space="preserve" text-anchor="middle" x="615.38" y="-811.8" font-family="Helvetica,sans-Serif" font-size="11.00">ask&#45;rerun&#45;mode</text>
<text xml:space="preserve" text-anchor="middle" x="615.38" y="-799.8" font-family="Helvetica,sans-Serif" font-size="11.00">(create&#45;only&#45;new / update /</text>
<text xml:space="preserve" text-anchor="middle" x="615.38" y="-787.8" font-family="Helvetica,sans-Serif" font-size="11.00">start&#45;fresh / cancel)</text>
</g>
<!-- decide_rerun&#45;&gt;ask_rerun_mode -->
<g id="edge11" class="edge">
<title>decide_rerun&#45;&gt;ask_rerun_mode</title>
<path fill="none" stroke="black" d="M615.38,-893.49C615.38,-882.81 615.38,-871.24 615.38,-860.1"/>
<polygon fill="black" stroke="black" points="618.88,-860.22 615.38,-850.22 611.88,-860.22 618.88,-860.22"/>
<text xml:space="preserve" text-anchor="middle" x="646.5" y="-867.45" font-family="Helvetica,sans-Serif" font-size="9.00">rerun_detected</text>
</g>
<!-- ask_milestone_name&#45;&gt;decide_rerun -->
<g id="edge9" class="edge">
<title>ask_milestone_name&#45;&gt;decide_rerun</title>
<path fill="none" stroke="black" d="M678.6,-1034.74C668.26,-1019.08 656.02,-1000.55 645.08,-983.99"/>
<polygon fill="black" stroke="black" points="648.08,-982.18 639.65,-975.76 642.24,-986.03 648.08,-982.18"/>
<text xml:space="preserve" text-anchor="middle" x="690.73" y="-1001.2" font-family="Helvetica,sans-Serif" font-size="9.00">name_chosen</text>
</g>
<!-- ask_milestone_name&#45;&gt;terminal -->
<g id="edge10" class="edge">
<title>ask_milestone_name&#45;&gt;terminal</title>
<path fill="none" stroke="black" d="M738.85,-1038.19C762.29,-1013.57 788.38,-977.51 788.38,-939 788.38,-939 788.38,-939 788.38,-127.25 788.38,-81.08 734.21,-57.79 692.55,-46.71"/>
<polygon fill="black" stroke="black" points="693.48,-43.33 682.93,-44.32 691.79,-50.13 693.48,-43.33"/>
<text xml:space="preserve" text-anchor="middle" x="813.5" y="-524.82" font-family="Helvetica,sans-Serif" font-size="9.00">user_cancel</text>
</g>
<!-- ask_rerun_mode&#45;&gt;build_plan -->
<g id="edge13" class="edge">
<title>ask_rerun_mode&#45;&gt;build_plan</title>
<path fill="none" stroke="black" d="M564.39,-775.41C533.46,-758.52 494.19,-737.08 463.59,-720.37"/>
<polygon fill="black" stroke="black" points="465.35,-717.34 454.89,-715.62 461.99,-723.48 465.35,-717.34"/>
<text xml:space="preserve" text-anchor="middle" x="532.09" y="-733.7" font-family="Helvetica,sans-Serif" font-size="9.00">mode_chosen</text>
</g>
<!-- ask_rerun_mode&#45;&gt;terminal -->
<g id="edge14" class="edge">
<title>ask_rerun_mode&#45;&gt;terminal</title>
<path fill="none" stroke="black" d="M661.21,-773.91C685.5,-754.47 710.38,-726.51 710.38,-693.5 710.38,-693.5 710.38,-693.5 710.38,-127.25 710.38,-104.49 696.48,-83.62 681.54,-67.75"/>
<polygon fill="black" stroke="black" points="684.32,-65.59 674.77,-61 679.37,-70.54 684.32,-65.59"/>
<text xml:space="preserve" text-anchor="middle" x="735.5" y="-403.07" font-family="Helvetica,sans-Serif" font-size="9.00">user_cancel</text>
</g>
<!-- ask_approval&#45;&gt;discuss_plan -->
<g id="edge17" class="edge">
<title>ask_approval&#45;&gt;discuss_plan</title>
<path fill="none" stroke="black" d="M119.26,-514.24C79.6,-506.04 38.22,-494.09 26.38,-478.5 17.2,-466.42 22.35,-451.39 31.05,-438.3"/>
<polygon fill="black" stroke="black" points="33.78,-440.49 36.95,-430.38 28.17,-436.31 33.78,-440.49"/>
<text xml:space="preserve" text-anchor="middle" x="53.38" y="-469.95" font-family="Helvetica,sans-Serif" font-size="9.00">user_discuss</text>
</g>
<!-- ask_approval&#45;&gt;create_milestone -->
<g id="edge16" class="edge">
<title>ask_approval&#45;&gt;create_milestone</title>
<path fill="none" stroke="black" d="M191.36,-498.58C179.81,-462.83 167.08,-401.93 196.88,-362.75 213.22,-341.24 270.68,-324.86 325.33,-313.7"/>
<polygon fill="black" stroke="black" points="325.96,-317.14 335.09,-311.76 324.6,-310.28 325.96,-317.14"/>
<text xml:space="preserve" text-anchor="middle" x="253.12" y="-403.07" font-family="Helvetica,sans-Serif" font-size="9.00">user_approve_no_matches</text>
</g>
<!-- ask_per_match_decisions -->
<g id="node14" class="node">
<title>ask_per_match_decisions</title>
<polygon fill="#ffccbc" stroke="black" points="467.38,-450.75 317.88,-406.75 467.37,-362.75 616.88,-406.75 467.38,-450.75"/>
<text xml:space="preserve" text-anchor="middle" x="467.38" y="-414.3" font-family="Helvetica,sans-Serif" font-size="11.00">ask&#45;per&#45;match&#45;decisions</text>
<text xml:space="preserve" text-anchor="middle" x="467.38" y="-402.3" font-family="Helvetica,sans-Serif" font-size="11.00">(per match: skip / augment /</text>
<text xml:space="preserve" text-anchor="middle" x="467.38" y="-390.3" font-family="Helvetica,sans-Serif" font-size="11.00">replace / link / create)</text>
</g>
<!-- ask_approval&#45;&gt;ask_per_match_decisions -->
<g id="edge15" class="edge">
<title>ask_approval&#45;&gt;ask_per_match_decisions</title>
<path fill="none" stroke="black" d="M249.14,-506.36C290.72,-487.57 352.04,-459.86 399.1,-438.6"/>
<polygon fill="black" stroke="black" points="400.47,-441.82 408.14,-434.51 397.59,-435.44 400.47,-441.82"/>
<text xml:space="preserve" text-anchor="middle" x="386.18" y="-469.95" font-family="Helvetica,sans-Serif" font-size="9.00">user_approve_with_matches</text>
</g>
<!-- ask_approval&#45;&gt;terminal -->
<g id="edge18" class="edge">
<title>ask_approval&#45;&gt;terminal</title>
<path fill="none" stroke="black" d="M309.87,-519.47C418.94,-509.36 578.36,-488.54 626.38,-450.75 642.79,-437.82 645.38,-428.64 645.38,-407.75 645.38,-407.75 645.38,-407.75 645.38,-127.25 645.38,-113.39 645.38,-98.32 645.38,-84.57"/>
<polygon fill="black" stroke="black" points="648.88,-84.9 645.38,-74.9 641.88,-84.9 648.88,-84.9"/>
<text xml:space="preserve" text-anchor="middle" x="670.5" y="-246.45" font-family="Helvetica,sans-Serif" font-size="9.00">user_cancel</text>
</g>
<!-- ask_per_match_decisions&#45;&gt;create_milestone -->
<g id="edge20" class="edge">
<title>ask_per_match_decisions&#45;&gt;create_milestone</title>
<path fill="none" stroke="black" d="M456.37,-365.5C453.04,-353.3 449.42,-340.05 446.24,-328.43"/>
<polygon fill="black" stroke="black" points="449.65,-327.63 443.64,-318.9 442.9,-329.47 449.65,-327.63"/>
<text xml:space="preserve" text-anchor="middle" x="484.33" y="-336.2" font-family="Helvetica,sans-Serif" font-size="9.00">decisions_made</text>
</g>
<!-- ask_per_match_decisions&#45;&gt;terminal -->
<g id="edge21" class="edge">
<title>ask_per_match_decisions&#45;&gt;terminal</title>
<path fill="none" stroke="black" d="M515.91,-376.73C541.39,-357.5 567.38,-329.63 567.38,-296 567.38,-296 567.38,-296 567.38,-127.25 567.38,-101.25 586.28,-79.12 605.48,-63.36"/>
<polygon fill="black" stroke="black" points="607.57,-66.17 613.35,-57.29 603.29,-60.63 607.57,-66.17"/>
<text xml:space="preserve" text-anchor="middle" x="592.5" y="-201.57" font-family="Helvetica,sans-Serif" font-size="9.00">user_cancel</text>
</g>
</g>
</svg>
